<?xml version="1.0" encoding="UTF-8"?>
<!-- Generator: visioncortex VTracer 0.6.3 -->
<svg version="1.1" xmlns="http://www.w3.org/2000/svg" width="570" height="290">
<path d="M0 0 C188.1 0 376.2 0 570 0 C570 95.37 570 190.74 570 289 C381.9 289 193.8 289 0 289 C0 193.63 0 98.26 0 0 Z " fill="#020202" transform="translate(0,0)"/>
<path d="M0 0 C61.38 0 122.76 0 186 0 C186 66.99 186 133.98 186 203 C124.62 203 63.24 203 0 203 C0 136.01 0 69.02 0 0 Z " fill="#F5F0E1" transform="translate(195,43)"/>
<path d="M0 0 C61.38 0 122.76 0 186 0 C186 66.99 186 133.98 186 203 C124.62 203 63.24 203 0 203 C0 136.01 0 69.02 0 0 Z " fill="#F5F0E1" transform="translate(0,43)"/>
<path d="M0 0 C56.43 0 112.86 0 171 0 C171 66.99 171 133.98 171 203 C114.57 203 58.14 203 0 203 C0 136.01 0 69.02 0 0 Z " fill="#F5F0E0" transform="translate(390,43)"/>
<path d="M0 0 C1.01 0 1.01 0 2.04 0.01 C4.09 0.01 6.14 -0.01 8.19 -0.04 C9.48 -0.04 10.77 -0.04 12.1 -0.04 C13.28 -0.04 14.47 -0.05 15.69 -0.05 C18.66 0.32 18.66 0.32 20.58 1.72 C21.66 3.32 21.66 3.32 21.47 5.38 C20.66 7.32 20.66 7.32 18.66 9.32 C15.8 9.58 15.8 9.58 12.19 9.59 C10.9 9.59 9.61 9.59 8.28 9.6 C7.6 9.59 6.93 9.59 6.23 9.58 C4.17 9.57 2.11 9.58 0.05 9.6 C-1.24 9.59 -2.54 9.59 -3.87 9.59 C-5.06 9.59 -6.25 9.58 -7.48 9.58 C-10.34 9.32 -10.34 9.32 -12.34 7.32 C-12.59 4.82 -12.59 4.82 -12.34 2.32 C-8.98 -1.04 -4.56 0.03 0 0 Z " fill="#E9E4D5" transform="translate(482.337890625,14.677734375)"/>
<path d="M0 0 C1.02 0 1.02 0 2.05 0 C4.11 -0 6.17 -0.02 8.23 -0.04 C9.52 -0.04 10.81 -0.04 12.15 -0.04 C13.34 -0.05 14.53 -0.05 15.76 -0.06 C18.75 0.19 18.75 0.19 21.75 2.19 C21.38 5.12 21.38 5.12 20.75 8.19 C16.18 10.47 9.83 9.42 4.81 9.44 C3.51 9.46 2.21 9.48 0.87 9.5 C-0.38 9.5 -1.62 9.51 -2.9 9.51 C-4.05 9.52 -5.19 9.53 -6.37 9.54 C-9.25 9.19 -9.25 9.19 -11.16 7.83 C-12.25 6.19 -12.25 6.19 -12 3.56 C-10.3 -1.83 -4.9 0.02 0 0 Z " fill="#E9E4D5" transform="translate(128.25,14.814453125)"/>
<path d="M0 0 C1.02 0 1.02 0 2.05 0 C4.11 -0 6.17 -0.02 8.23 -0.04 C9.52 -0.04 10.81 -0.04 12.15 -0.04 C13.34 -0.05 14.53 -0.05 15.76 -0.06 C18.75 0.19 18.75 0.19 21.75 2.19 C21.38 5.12 21.38 5.12 20.75 8.19 C16.18 10.47 9.83 9.42 4.81 9.44 C3.51 9.46 2.21 9.48 0.87 9.5 C-0.38 9.5 -1.62 9.51 -2.9 9.51 C-4.05 9.52 -5.19 9.53 -6.37 9.54 C-9.25 9.19 -9.25 9.19 -11.16 7.83 C-12.25 6.19 -12.25 6.19 -12 3.56 C-10.3 -1.83 -4.9 0.02 0 0 Z " fill="#E9E4D5" transform="translate(27.25,14.814453125)"/>
<path d="M0 0 C1.29 -0 2.59 -0.01 3.92 -0.01 C4.59 -0 5.27 0 5.96 0 C8.02 0.02 10.08 0 12.14 -0.01 C13.44 -0.01 14.73 -0 16.06 0 C17.25 0 18.45 0 19.67 0.01 C22.53 0.27 22.53 0.27 24.53 2.27 C24.78 4.77 24.78 4.77 24.53 7.27 C21.17 10.62 16.76 9.56 12.19 9.59 C11.52 9.59 10.85 9.58 10.16 9.58 C8.1 9.58 6.06 9.6 4.01 9.63 C2.72 9.63 1.43 9.63 0.1 9.63 C-1.09 9.63 -2.28 9.63 -3.5 9.64 C-6.47 9.27 -6.47 9.27 -8.39 7.87 C-9.47 6.27 -9.47 6.27 -9.28 4.2 C-7.32 -0.48 -4.62 0.01 0 0 Z " fill="#E9E5D5" transform="translate(428.46875,14.734375)"/>
<path d="M0 0 C1.01 0 1.01 0 2.04 0.01 C4.09 0.01 6.14 -0.01 8.19 -0.04 C9.48 -0.04 10.77 -0.04 12.1 -0.04 C13.28 -0.04 14.47 -0.05 15.69 -0.05 C18.66 0.32 18.66 0.32 20.58 1.72 C21.66 3.32 21.66 3.32 21.47 5.38 C20.66 7.32 20.66 7.32 18.66 9.32 C15.8 9.58 15.8 9.58 12.19 9.59 C10.9 9.59 9.61 9.59 8.28 9.6 C7.6 9.59 6.93 9.59 6.23 9.58 C4.17 9.57 2.11 9.58 0.05 9.6 C-1.24 9.59 -2.54 9.59 -3.87 9.59 C-5.06 9.59 -6.25 9.58 -7.48 9.58 C-10.34 9.32 -10.34 9.32 -12.34 7.32 C-12.59 4.82 -12.59 4.82 -12.34 2.32 C-8.98 -1.04 -4.56 0.03 0 0 Z " fill="#E9E5D5" transform="translate(381.337890625,14.677734375)"/>
<path d="M0 0 C2.06 -0 4.12 -0.02 6.18 -0.04 C7.48 -0.04 8.77 -0.04 10.1 -0.05 C11.29 -0.05 12.48 -0.05 13.71 -0.06 C16.57 0.19 16.57 0.19 18.57 2.19 C18.88 4.69 18.88 4.69 18.57 7.19 C13.5 10.56 7.52 9.51 1.57 9.5 C0.27 9.51 -1.02 9.53 -2.36 9.55 C-3.6 9.55 -4.84 9.55 -6.12 9.55 C-7.83 9.55 -7.83 9.55 -9.57 9.56 C-12.43 9.19 -12.43 9.19 -14.34 7.83 C-15.43 6.19 -15.43 6.19 -15.24 3.56 C-13.31 -2.08 -4.97 -0 0 0 Z " fill="#E9E5D6" transform="translate(333.43115234375,14.814697265625)"/>
<path d="M0 0 C2.06 -0 4.12 -0.02 6.18 -0.04 C7.48 -0.04 8.77 -0.04 10.1 -0.05 C11.29 -0.05 12.48 -0.05 13.71 -0.06 C16.57 0.19 16.57 0.19 18.57 2.19 C18.32 5.25 18.32 5.25 17.57 8.19 C13 10.47 6.65 9.42 1.63 9.44 C0.33 9.46 -0.97 9.48 -2.31 9.5 C-3.56 9.5 -4.8 9.51 -6.08 9.51 C-7.23 9.52 -8.37 9.53 -9.55 9.54 C-12.43 9.19 -12.43 9.19 -14.34 7.83 C-15.43 6.19 -15.43 6.19 -15.24 3.56 C-13.31 -2.08 -4.97 -0 0 0 Z " fill="#EAE5D6" transform="translate(232.43115234375,14.814697265625)"/>
<path d="M0 0 C1.29 -0 2.59 -0.01 3.92 -0.01 C4.59 -0 5.27 0 5.96 0 C8.02 0.02 10.08 0 12.14 -0.01 C13.44 -0.01 14.73 -0 16.06 0 C17.25 0 18.45 0 19.67 0.01 C22.53 0.27 22.53 0.27 24.53 2.27 C24.78 4.77 24.78 4.77 24.53 7.27 C21.74 10.06 19.97 9.52 16.06 9.53 C14.77 9.53 13.48 9.54 12.14 9.54 C11.47 9.53 10.8 9.53 10.1 9.53 C8.04 9.52 5.98 9.53 3.92 9.54 C2.63 9.54 1.33 9.53 0 9.53 C-1.19 9.53 -2.38 9.53 -3.61 9.52 C-6.47 9.27 -6.47 9.27 -8.47 7.27 C-8.72 4.77 -8.72 4.77 -8.47 2.27 C-5.67 -0.53 -3.91 0.01 0 0 Z " fill="#EBE6D7" transform="translate(529.46875,14.734375)"/>
<path d="M0 0 C1.29 -0 2.59 -0.01 3.92 -0.01 C4.59 -0 5.27 0 5.96 0 C8.02 0.02 10.08 0 12.14 -0.01 C13.44 -0.01 14.73 -0 16.06 0 C17.25 0 18.45 0 19.67 0.01 C22.53 0.27 22.53 0.27 24.53 2.27 C24.78 4.77 24.78 4.77 24.53 7.27 C21.74 10.06 19.97 9.52 16.06 9.53 C14.77 9.53 13.48 9.54 12.14 9.54 C11.47 9.53 10.8 9.53 10.1 9.53 C8.04 9.52 5.98 9.53 3.92 9.54 C2.63 9.54 1.33 9.53 0 9.53 C-1.19 9.53 -2.38 9.53 -3.61 9.52 C-6.47 9.27 -6.47 9.27 -8.47 7.27 C-8.72 4.77 -8.72 4.77 -8.47 2.27 C-5.67 -0.53 -3.91 0.01 0 0 Z " fill="#EBE6D7" transform="translate(276.46875,14.734375)"/>
<path d="M0 0 C1.29 -0 2.59 -0.01 3.92 -0.01 C4.59 -0 5.27 0 5.96 0 C8.02 0.02 10.08 0 12.14 -0.01 C13.44 -0.01 14.73 -0 16.06 0 C17.25 0 18.45 0 19.67 0.01 C22.53 0.27 22.53 0.27 24.53 2.27 C24.78 4.77 24.78 4.77 24.53 7.27 C21.74 10.06 19.97 9.52 16.06 9.53 C14.77 9.53 13.48 9.54 12.14 9.54 C11.47 9.53 10.8 9.53 10.1 9.53 C8.04 9.52 5.98 9.53 3.92 9.54 C2.63 9.54 1.33 9.53 0 9.53 C-1.19 9.53 -2.38 9.53 -3.61 9.52 C-6.47 9.27 -6.47 9.27 -8.47 7.27 C-8.72 4.77 -8.72 4.77 -8.47 2.27 C-5.67 -0.53 -3.91 0.01 0 0 Z " fill="#EBE6D7" transform="translate(175.46875,14.734375)"/>
<path d="M0 0 C1.29 -0 2.59 -0.01 3.92 -0.01 C4.59 -0 5.27 0 5.96 0 C8.02 0.02 10.08 0 12.14 -0.01 C13.44 -0.01 14.73 -0 16.06 0 C17.25 0 18.45 0 19.67 0.01 C22.53 0.27 22.53 0.27 24.53 2.27 C24.78 4.77 24.78 4.77 24.53 7.27 C21.74 10.06 19.97 9.52 16.06 9.53 C14.77 9.53 13.48 9.54 12.14 9.54 C11.47 9.53 10.8 9.53 10.1 9.53 C8.04 9.52 5.98 9.53 3.92 9.54 C2.63 9.54 1.33 9.53 0 9.53 C-1.19 9.53 -2.38 9.53 -3.61 9.52 C-6.47 9.27 -6.47 9.27 -8.47 7.27 C-8.72 4.77 -8.72 4.77 -8.47 2.27 C-5.67 -0.53 -3.91 0.01 0 0 Z " fill="#EBE6D7" transform="translate(74.46875,14.734375)"/>
<path d="M0 0 C1.05 0 1.05 0 2.13 0 C4.27 -0 6.41 -0.02 8.55 -0.04 C9.91 -0.04 11.27 -0.04 12.62 -0.04 C13.86 -0.05 15.1 -0.05 16.38 -0.06 C19.35 0.19 19.35 0.19 21.35 2.19 C20.79 6.74 20.79 6.74 19.35 8.19 C15.09 8.4 10.83 8.37 6.56 8.37 C4.42 8.37 2.28 8.39 0.14 8.41 C-1.22 8.41 -2.58 8.42 -3.93 8.42 C-5.17 8.42 -6.41 8.42 -7.69 8.43 C-10.65 8.19 -10.65 8.19 -12.65 6.19 C-11.67 -1.87 -6.96 0.03 0 0 Z " fill="#F4EFDF" transform="translate(482.654296875,261.814453125)"/>
<path d="M0 0 C1.05 0 1.05 0 2.13 0 C4.27 -0 6.41 -0.02 8.55 -0.04 C9.91 -0.04 11.27 -0.04 12.62 -0.04 C13.86 -0.05 15.1 -0.05 16.38 -0.06 C19.35 0.19 19.35 0.19 21.35 2.19 C20.79 6.74 20.79 6.74 19.35 8.19 C15.09 8.4 10.83 8.37 6.56 8.37 C4.42 8.37 2.28 8.39 0.14 8.41 C-1.22 8.41 -2.58 8.42 -3.93 8.42 C-5.17 8.42 -6.41 8.42 -7.69 8.43 C-10.65 8.19 -10.65 8.19 -12.65 6.19 C-11.67 -1.87 -6.96 0.03 0 0 Z " fill="#F3EEDF" transform="translate(330.654296875,261.814453125)"/>
<path d="M0 0 C1.05 0 1.05 0 2.13 0 C4.27 -0 6.41 -0.02 8.55 -0.04 C9.91 -0.04 11.27 -0.04 12.62 -0.04 C13.86 -0.05 15.1 -0.05 16.38 -0.06 C19.35 0.19 19.35 0.19 21.35 2.19 C20.79 6.74 20.79 6.74 19.35 8.19 C15.09 8.4 10.83 8.37 6.56 8.37 C4.42 8.37 2.28 8.39 0.14 8.41 C-1.22 8.41 -2.58 8.42 -3.93 8.42 C-5.17 8.42 -6.41 8.42 -7.69 8.43 C-10.65 8.19 -10.65 8.19 -12.65 6.19 C-11.67 -1.87 -6.96 0.03 0 0 Z " fill="#F3EFDF" transform="translate(229.654296875,261.814453125)"/>
<path d="M0 0 C1.05 0 1.05 0 2.13 0 C4.27 -0 6.41 -0.02 8.55 -0.04 C9.91 -0.04 11.27 -0.04 12.62 -0.04 C13.86 -0.05 15.1 -0.05 16.38 -0.06 C19.35 0.19 19.35 0.19 21.35 2.19 C20.79 6.74 20.79 6.74 19.35 8.19 C15.09 8.4 10.83 8.37 6.56 8.37 C4.42 8.37 2.28 8.39 0.14 8.41 C-1.22 8.41 -2.58 8.42 -3.93 8.42 C-5.17 8.42 -6.41 8.42 -7.69 8.43 C-10.65 8.19 -10.65 8.19 -12.65 6.19 C-11.67 -1.87 -6.96 0.03 0 0 Z " fill="#F4EFDF" transform="translate(128.654296875,261.814453125)"/>
<path d="M0 0 C1.05 0 1.05 0 2.13 0 C4.27 -0 6.41 -0.02 8.55 -0.04 C9.91 -0.04 11.27 -0.04 12.62 -0.04 C13.86 -0.05 15.1 -0.05 16.38 -0.06 C19.35 0.19 19.35 0.19 21.35 2.19 C20.79 6.74 20.79 6.74 19.35 8.19 C15.09 8.4 10.83 8.37 6.56 8.37 C4.42 8.37 2.28 8.39 0.14 8.41 C-1.22 8.41 -2.58 8.42 -3.93 8.42 C-5.17 8.42 -6.41 8.42 -7.69 8.43 C-10.65 8.19 -10.65 8.19 -12.65 6.19 C-11.67 -1.87 -6.96 0.03 0 0 Z " fill="#F4EFDF" transform="translate(27.654296875,261.814453125)"/>
<path d="M0 0 C0.68 -0 1.37 -0 2.07 -0 C3.52 -0 4.97 -0 6.42 0 C8.65 0.01 10.87 0 13.1 -0 C14.5 -0 15.91 -0 17.31 0 C18.6 0 19.89 0 21.21 0 C24.16 0.13 24.16 0.13 25.16 1.13 C25.34 3.57 25.34 3.57 25.16 6.13 C23.16 8.13 23.16 8.13 20.19 8.38 C18.95 8.37 17.71 8.37 16.43 8.36 C15.77 8.36 15.11 8.36 14.43 8.36 C13.04 8.36 11.64 8.35 10.24 8.34 C8.1 8.32 5.95 8.32 3.81 8.32 C-6.7 8.28 -6.7 8.28 -7.84 7.13 C-7.97 4.13 -7.97 4.13 -7.84 1.13 C-5.94 -0.78 -2.53 0 0 0 Z " fill="#F4EFDF" transform="translate(528.84375,261.8671875)"/>
<path d="M0 0 C0.68 -0 1.37 -0 2.07 -0 C3.52 -0 4.97 -0 6.42 0 C8.65 0.01 10.87 0 13.1 -0 C14.5 -0 15.91 -0 17.31 0 C18.6 0 19.89 0 21.21 0 C24.16 0.13 24.16 0.13 25.16 1.13 C25.34 3.57 25.34 3.57 25.16 6.13 C23.16 8.13 23.16 8.13 20.19 8.38 C18.95 8.37 17.71 8.37 16.43 8.36 C15.77 8.36 15.11 8.36 14.43 8.36 C13.04 8.36 11.64 8.35 10.24 8.34 C8.1 8.32 5.95 8.32 3.81 8.32 C-6.7 8.28 -6.7 8.28 -7.84 7.13 C-7.97 4.13 -7.97 4.13 -7.84 1.13 C-5.94 -0.78 -2.53 0 0 0 Z " fill="#F4EFDF" transform="translate(427.84375,261.8671875)"/>
<path d="M0 0 C4.4 -0.02 8.79 -0.04 13.19 -0.05 C14.69 -0.06 16.18 -0.07 17.68 -0.08 C19.83 -0.09 21.97 -0.09 24.12 -0.1 C26.06 -0.11 26.06 -0.11 28.04 -0.11 C31 0 31 0 32 1 C32.12 4 32.12 4 32 7 C29.57 9.43 23.74 8.17 20.35 8.19 C19.29 8.19 19.29 8.19 18.22 8.19 C16.07 8.19 13.93 8.21 11.79 8.22 C10.43 8.23 9.08 8.23 7.72 8.23 C6.48 8.23 5.24 8.24 3.97 8.24 C1 8 1 8 -1 6 C-0.62 2.88 -0.62 2.88 0 0 Z " fill="#F5F0E0" transform="translate(370,262)"/>
<path d="M0 0 C0.68 -0 1.37 -0 2.07 -0 C3.52 -0 4.97 -0 6.42 0 C8.65 0.01 10.87 0 13.1 -0 C14.5 -0 15.91 -0 17.31 0 C18.6 0 19.89 0 21.21 0 C24.16 0.13 24.16 0.13 25.16 1.13 C25.2 3.13 25.2 5.13 25.16 7.13 C20.93 9.25 15.38 8.32 10.73 8.32 C8.66 8.32 6.6 8.34 4.54 8.36 C3.25 8.36 1.96 8.36 0.62 8.36 C-0.57 8.37 -1.76 8.37 -2.99 8.38 C-5.84 8.13 -5.84 8.13 -7.84 6.13 C-8.03 3.57 -8.03 3.57 -7.84 1.13 C-5.94 -0.78 -2.53 0 0 0 Z " fill="#F5F0E0" transform="translate(275.84375,261.8671875)"/>
<path d="M0 0 C0.68 -0 1.37 -0 2.07 -0 C3.52 -0 4.97 -0 6.42 0 C8.65 0.01 10.87 0 13.1 -0 C14.5 -0 15.91 -0 17.31 0 C18.6 0 19.89 0 21.21 0 C24.16 0.13 24.16 0.13 25.16 1.13 C25.2 3.13 25.2 5.13 25.16 7.13 C20.93 9.25 15.38 8.32 10.73 8.32 C8.66 8.32 6.6 8.34 4.54 8.36 C3.25 8.36 1.96 8.36 0.62 8.36 C-0.57 8.37 -1.76 8.37 -2.99 8.38 C-5.84 8.13 -5.84 8.13 -7.84 6.13 C-8.03 3.57 -8.03 3.57 -7.84 1.13 C-5.94 -0.78 -2.53 0 0 0 Z " fill="#F5F0E0" transform="translate(174.84375,261.8671875)"/>
<path d="M0 0 C0.68 -0 1.37 -0 2.07 -0 C3.52 -0 4.97 -0 6.42 0 C8.65 0.01 10.87 0 13.1 -0 C14.5 -0 15.91 -0 17.31 0 C18.6 0 19.89 0 21.21 0 C24.16 0.13 24.16 0.13 25.16 1.13 C25.34 3.57 25.34 3.57 25.16 6.13 C22.36 8.93 20.6 8.39 16.69 8.4 C15.39 8.4 14.1 8.4 12.77 8.41 C12.09 8.4 11.42 8.4 10.73 8.39 C8.66 8.38 6.6 8.39 4.54 8.41 C3.25 8.4 1.96 8.4 0.62 8.4 C-0.57 8.4 -1.76 8.39 -2.99 8.39 C-5.84 8.13 -5.84 8.13 -7.84 6.13 C-8.03 3.57 -8.03 3.57 -7.84 1.13 C-5.94 -0.78 -2.53 0 0 0 Z " fill="#F5F0E0" transform="translate(73.84375,261.8671875)"/>
</svg>
