<svg xmlns="http://www.w3.org/2000/svg" xmlns:xlink="http://www.w3.org/1999/xlink" width="720" zoomAndPan="magnify" viewBox="0 0 540 179.999997" height="240" preserveAspectRatio="xMidYMid meet" version="1.0"><defs><g/><clipPath id="38ce0b43c2"><path d="M 92.738281 20 L 540 20 L 540 160 L 92.738281 160 Z M 92.738281 20 " clip-rule="nonzero"/></clipPath><clipPath id="b49db01242"><path d="M 92.738281 0 L 540 0 L 540 27 L 92.738281 27 Z M 92.738281 0 " clip-rule="nonzero"/></clipPath><clipPath id="b4afb202fe"><path d="M 92.738281 154 L 540 154 L 540 180 L 92.738281 180 Z M 92.738281 154 " clip-rule="nonzero"/></clipPath><clipPath id="83255314f9"><path d="M 0 20 L 477.734375 20 L 477.734375 160 L 0 160 Z M 0 20 " clip-rule="nonzero"/></clipPath><clipPath id="b3730f8e6a"><path d="M 0 0 L 477.734375 0 L 477.734375 27 L 0 27 Z M 0 0 " clip-rule="nonzero"/></clipPath><clipPath id="5796af618e"><path d="M 0 154 L 477.734375 154 L 477.734375 180 L 0 180 Z M 0 154 " clip-rule="nonzero"/></clipPath></defs><path fill="#f7f2e2" d="M 593.871094 23.316406 L 593.871094 157.21875 L 95.546875 157.21875 L 95.546875 23.316406 Z M 593.871094 23.316406 " fill-opacity="1" fill-rule="nonzero"/><g clip-path="url(#38ce0b43c2)"><path fill="#000000" d="M 92.769531 157.21875 L 92.769531 23.316406 C 92.769531 21.773438 94 20.546875 95.546875 20.546875 L 593.871094 20.546875 C 595.414062 20.546875 596.644531 21.773438 596.644531 23.316406 L 596.644531 157.21875 C 596.644531 158.757812 595.414062 159.984375 593.871094 159.984375 L 95.546875 159.984375 C 94 159.984375 92.769531 158.757812 92.769531 157.21875 Z M 98.320312 26.085938 L 98.320312 154.449219 L 591.09375 154.449219 L 591.09375 26.085938 Z M 98.320312 26.085938 " fill-opacity="1" fill-rule="nonzero"/></g><path fill="#000000" d="M 593.871094 2.171875 L 593.871094 23.316406 L 95.546875 23.316406 L 95.546875 2.171875 Z M 593.871094 2.171875 " fill-opacity="1" fill-rule="nonzero"/><g clip-path="url(#b49db01242)"><path fill="#000000" d="M 92.769531 23.316406 L 92.769531 2.171875 C 92.769531 0.632812 94 -0.59375 95.546875 -0.59375 L 593.871094 -0.59375 C 595.414062 -0.59375 596.644531 0.632812 596.644531 2.171875 L 596.644531 23.316406 C 596.644531 24.855469 595.414062 26.085938 593.871094 26.085938 L 95.546875 26.085938 C 94 26.085938 92.769531 24.855469 92.769531 23.316406 Z M 98.320312 4.941406 L 98.320312 20.546875 L 591.09375 20.546875 L 591.09375 4.941406 Z M 98.320312 4.941406 " fill-opacity="1" fill-rule="nonzero"/></g><path fill="#f7f2e2" d="M 126.769531 11.582031 C 126.769531 10.070312 128 8.875 129.484375 8.875 L 145.410156 8.875 C 146.925781 8.875 148.121094 10.101562 148.121094 11.582031 C 148.121094 13.058594 146.894531 14.285156 145.410156 14.285156 L 129.484375 14.285156 C 128 14.285156 126.769531 13.058594 126.769531 11.582031 Z M 158.65625 11.582031 C 158.65625 10.070312 159.886719 8.875 161.371094 8.875 L 177.296875 8.875 C 178.8125 8.875 180.007812 10.101562 180.007812 11.582031 C 180.007812 13.058594 178.777344 14.285156 177.296875 14.285156 L 161.371094 14.285156 C 159.886719 14.285156 158.65625 13.058594 158.65625 11.582031 Z M 190.542969 11.582031 C 190.542969 10.070312 191.773438 8.875 193.253906 8.875 L 209.183594 8.875 C 210.695312 8.875 211.894531 10.101562 211.894531 11.582031 C 211.894531 13.058594 210.664062 14.285156 209.183594 14.285156 L 193.253906 14.285156 C 191.742188 14.285156 190.542969 13.058594 190.542969 11.582031 Z M 222.429688 11.582031 C 222.429688 10.070312 223.660156 8.875 225.140625 8.875 L 241.070312 8.875 C 242.582031 8.875 243.78125 10.101562 243.78125 11.582031 C 243.78125 13.058594 242.550781 14.285156 241.070312 14.285156 L 225.140625 14.285156 C 223.628906 14.285156 222.429688 13.058594 222.429688 11.582031 Z M 254.316406 11.582031 C 254.316406 10.070312 255.546875 8.875 257.027344 8.875 L 272.957031 8.875 C 274.46875 8.875 275.667969 10.101562 275.667969 11.582031 C 275.667969 13.058594 274.4375 14.285156 272.957031 14.285156 L 257.027344 14.285156 C 255.515625 14.285156 254.316406 13.058594 254.316406 11.582031 Z M 286.203125 11.582031 C 286.203125 10.070312 287.433594 8.875 288.914062 8.875 L 304.84375 8.875 C 306.355469 8.875 307.554688 10.101562 307.554688 11.582031 C 307.554688 13.058594 306.324219 14.285156 304.84375 14.285156 L 288.914062 14.285156 C 287.402344 14.285156 286.203125 13.058594 286.203125 11.582031 Z M 318.058594 11.582031 C 318.058594 10.070312 319.289062 8.875 320.769531 8.875 L 336.695312 8.875 C 338.210938 8.875 339.410156 10.101562 339.410156 11.582031 C 339.410156 13.058594 338.179688 14.285156 336.695312 14.285156 L 320.769531 14.285156 C 319.289062 14.285156 318.058594 13.058594 318.058594 11.582031 Z M 349.945312 11.582031 C 349.945312 10.070312 351.171875 8.875 352.65625 8.875 L 368.582031 8.875 C 370.097656 8.875 371.296875 10.101562 371.296875 11.582031 C 371.296875 13.058594 370.066406 14.285156 368.582031 14.285156 L 352.65625 14.285156 C 351.171875 14.285156 349.945312 13.058594 349.945312 11.582031 Z M 381.828125 11.582031 C 381.828125 10.070312 383.058594 8.875 384.542969 8.875 L 400.46875 8.875 C 401.984375 8.875 403.183594 10.101562 403.183594 11.582031 C 403.183594 13.058594 401.953125 14.285156 400.46875 14.285156 L 384.542969 14.285156 C 383.058594 14.285156 381.828125 13.058594 381.828125 11.582031 Z M 413.714844 11.582031 C 413.714844 10.070312 414.945312 8.875 416.429688 8.875 L 432.386719 8.875 C 433.902344 8.875 435.101562 10.101562 435.101562 11.582031 C 435.101562 13.058594 433.871094 14.285156 432.386719 14.285156 L 416.460938 14.285156 C 414.945312 14.285156 413.714844 13.058594 413.714844 11.582031 Z M 445.601562 11.582031 C 445.601562 10.070312 446.832031 8.875 448.316406 8.875 L 464.242188 8.875 C 465.757812 8.875 466.953125 10.101562 466.953125 11.582031 C 466.953125 13.058594 465.726562 14.285156 464.242188 14.285156 L 448.316406 14.285156 C 446.832031 14.285156 445.601562 13.058594 445.601562 11.582031 Z M 477.488281 11.582031 C 477.488281 10.070312 478.71875 8.875 480.203125 8.875 L 496.128906 8.875 C 497.644531 8.875 498.839844 10.101562 498.839844 11.582031 C 498.839844 13.058594 497.609375 14.285156 496.128906 14.285156 L 480.203125 14.285156 C 478.71875 14.285156 477.488281 13.058594 477.488281 11.582031 Z M 509.375 11.582031 C 509.375 10.070312 510.605469 8.875 512.085938 8.875 L 528.015625 8.875 C 529.527344 8.875 530.726562 10.101562 530.726562 11.582031 C 530.726562 13.058594 529.496094 14.285156 528.015625 14.285156 L 512.085938 14.285156 C 510.605469 14.285156 509.375 13.058594 509.375 11.582031 Z M 541.261719 11.582031 C 541.261719 10.070312 542.492188 8.875 543.972656 8.875 L 559.902344 8.875 C 561.414062 8.875 562.613281 10.101562 562.613281 11.582031 C 562.613281 13.058594 561.382812 14.285156 559.902344 14.285156 L 543.972656 14.285156 C 542.492188 14.285156 541.261719 13.058594 541.261719 11.582031 Z M 541.261719 11.582031 " fill-opacity="1" fill-rule="nonzero"/><path fill="#f7f2e2" d="M 102.644531 11.582031 C 102.644531 10.070312 103.875 8.875 105.355469 8.875 L 113.523438 8.875 C 115.039062 8.875 116.238281 10.101562 116.238281 11.582031 C 116.238281 13.058594 115.007812 14.285156 113.523438 14.285156 L 105.355469 14.285156 C 103.875 14.285156 102.644531 13.058594 102.644531 11.582031 Z M 102.644531 11.582031 " fill-opacity="1" fill-rule="nonzero"/><path fill="#000000" d="M 593.871094 157.21875 L 593.871094 178.359375 L 95.546875 178.359375 L 95.546875 157.21875 Z M 593.871094 157.21875 " fill-opacity="1" fill-rule="nonzero"/><g clip-path="url(#b4afb202fe)"><path fill="#000000" d="M 92.769531 178.359375 L 92.769531 157.21875 C 92.769531 155.675781 94 154.449219 95.546875 154.449219 L 593.871094 154.449219 C 595.414062 154.449219 596.644531 155.675781 596.644531 157.21875 L 596.644531 178.359375 C 596.644531 179.902344 595.414062 181.128906 593.871094 181.128906 L 95.546875 181.128906 C 94 181.128906 92.769531 179.902344 92.769531 178.359375 Z M 98.320312 159.984375 L 98.320312 175.589844 L 591.09375 175.589844 L 591.09375 159.984375 Z M 98.320312 159.984375 " fill-opacity="1" fill-rule="nonzero"/></g><path fill="#f7f2e2" d="M 126.769531 166.625 C 126.769531 165.113281 128 163.917969 129.484375 163.917969 L 145.410156 163.917969 C 146.925781 163.917969 148.121094 165.144531 148.121094 166.625 C 148.121094 168.101562 146.894531 169.332031 145.410156 169.332031 L 129.484375 169.332031 C 128 169.332031 126.769531 168.101562 126.769531 166.625 Z M 158.65625 166.625 C 158.65625 165.113281 159.886719 163.917969 161.371094 163.917969 L 177.296875 163.917969 C 178.8125 163.917969 180.007812 165.144531 180.007812 166.625 C 180.007812 168.101562 178.777344 169.332031 177.296875 169.332031 L 161.371094 169.332031 C 159.886719 169.332031 158.65625 168.101562 158.65625 166.625 Z M 190.542969 166.625 C 190.542969 165.113281 191.773438 163.917969 193.253906 163.917969 L 209.183594 163.917969 C 210.695312 163.917969 211.894531 165.144531 211.894531 166.625 C 211.894531 168.101562 210.664062 169.332031 209.183594 169.332031 L 193.253906 169.332031 C 191.742188 169.332031 190.542969 168.101562 190.542969 166.625 Z M 222.429688 166.625 C 222.429688 165.113281 223.660156 163.917969 225.140625 163.917969 L 241.070312 163.917969 C 242.582031 163.917969 243.78125 165.144531 243.78125 166.625 C 243.78125 168.101562 242.550781 169.332031 241.070312 169.332031 L 225.140625 169.332031 C 223.628906 169.332031 222.429688 168.101562 222.429688 166.625 Z M 254.316406 166.625 C 254.316406 165.113281 255.546875 163.917969 257.027344 163.917969 L 272.957031 163.917969 C 274.46875 163.917969 275.667969 165.144531 275.667969 166.625 C 275.667969 168.101562 274.4375 169.332031 272.957031 169.332031 L 257.027344 169.332031 C 255.515625 169.332031 254.316406 168.101562 254.316406 166.625 Z M 286.203125 166.625 C 286.203125 165.113281 287.433594 163.917969 288.914062 163.917969 L 304.84375 163.917969 C 306.355469 163.917969 307.554688 165.144531 307.554688 166.625 C 307.554688 168.101562 306.324219 169.332031 304.84375 169.332031 L 288.914062 169.332031 C 287.402344 169.332031 286.203125 168.101562 286.203125 166.625 Z M 318.058594 166.625 C 318.058594 165.113281 319.289062 163.917969 320.769531 163.917969 L 336.695312 163.917969 C 338.210938 163.917969 339.410156 165.144531 339.410156 166.625 C 339.410156 168.101562 338.179688 169.332031 336.695312 169.332031 L 320.769531 169.332031 C 319.289062 169.332031 318.058594 168.101562 318.058594 166.625 Z M 349.945312 166.625 C 349.945312 165.113281 351.171875 163.917969 352.65625 163.917969 L 368.582031 163.917969 C 370.097656 163.917969 371.296875 165.144531 371.296875 166.625 C 371.296875 168.101562 370.066406 169.332031 368.582031 169.332031 L 352.65625 169.332031 C 351.171875 169.332031 349.945312 168.101562 349.945312 166.625 Z M 381.828125 166.625 C 381.828125 165.113281 383.058594 163.917969 384.542969 163.917969 L 400.46875 163.917969 C 401.984375 163.917969 403.183594 165.144531 403.183594 166.625 C 403.183594 168.101562 401.953125 169.332031 400.46875 169.332031 L 384.542969 169.332031 C 383.058594 169.332031 381.828125 168.101562 381.828125 166.625 Z M 413.714844 166.625 C 413.714844 165.113281 414.945312 163.917969 416.429688 163.917969 L 432.386719 163.917969 C 433.902344 163.917969 435.101562 165.144531 435.101562 166.625 C 435.101562 168.101562 433.871094 169.332031 432.386719 169.332031 L 416.460938 169.332031 C 414.945312 169.332031 413.714844 168.101562 413.714844 166.625 Z M 445.601562 166.625 C 445.601562 165.113281 446.832031 163.917969 448.316406 163.917969 L 464.242188 163.917969 C 465.757812 163.917969 466.953125 165.144531 466.953125 166.625 C 466.953125 168.101562 465.726562 169.332031 464.242188 169.332031 L 448.316406 169.332031 C 446.832031 169.332031 445.601562 168.101562 445.601562 166.625 Z M 477.488281 166.625 C 477.488281 165.113281 478.71875 163.917969 480.203125 163.917969 L 496.128906 163.917969 C 497.644531 163.917969 498.839844 165.144531 498.839844 166.625 C 498.839844 168.101562 497.609375 169.332031 496.128906 169.332031 L 480.203125 169.332031 C 478.71875 169.332031 477.488281 168.101562 477.488281 166.625 Z M 509.375 166.625 C 509.375 165.113281 510.605469 163.917969 512.085938 163.917969 L 528.015625 163.917969 C 529.527344 163.917969 530.726562 165.144531 530.726562 166.625 C 530.726562 168.101562 529.496094 169.332031 528.015625 169.332031 L 512.085938 169.332031 C 510.605469 169.332031 509.375 168.101562 509.375 166.625 Z M 541.261719 166.625 C 541.261719 165.113281 542.492188 163.917969 543.972656 163.917969 L 559.902344 163.917969 C 561.414062 163.917969 562.613281 165.144531 562.613281 166.625 C 562.613281 168.101562 561.382812 169.332031 559.902344 169.332031 L 543.972656 169.332031 C 542.492188 169.332031 541.261719 168.101562 541.261719 166.625 Z M 541.261719 166.625 " fill-opacity="1" fill-rule="nonzero"/><path fill="#f7f2e2" d="M 102.644531 166.625 C 102.644531 165.113281 103.875 163.917969 105.355469 163.917969 L 113.523438 163.917969 C 115.039062 163.917969 116.238281 165.144531 116.238281 166.625 C 116.238281 168.101562 115.007812 169.332031 113.523438 169.332031 L 105.355469 169.332031 C 103.875 169.332031 102.644531 168.101562 102.644531 166.625 Z M 102.644531 166.625 " fill-opacity="1" fill-rule="nonzero"/><path fill="#000000" d="M 470.929688 157.21875 L 470.929688 27.34375 C 470.929688 25.644531 472.316406 24.257812 474.019531 24.257812 C 475.722656 24.257812 477.109375 25.644531 477.109375 27.34375 L 477.109375 157.21875 C 477.109375 158.917969 475.722656 160.300781 474.019531 160.300781 C 472.316406 160.300781 470.929688 158.917969 470.929688 157.21875 Z M 470.929688 157.21875 " fill-opacity="1" fill-rule="nonzero"/><path fill="#000000" d="M 357.386719 157.21875 L 357.386719 27.34375 C 357.386719 25.644531 358.773438 24.257812 360.476562 24.257812 C 362.179688 24.257812 363.570312 25.644531 363.570312 27.34375 L 363.570312 157.21875 C 363.570312 158.917969 362.179688 160.300781 360.476562 160.300781 C 358.773438 160.300781 357.386719 158.917969 357.386719 157.21875 Z M 357.386719 157.21875 " fill-opacity="1" fill-rule="nonzero"/><path fill="#000000" d="M 234.382812 157.21875 L 234.382812 27.34375 C 234.382812 25.644531 235.769531 24.257812 237.472656 24.257812 C 239.175781 24.257812 240.566406 25.644531 240.566406 27.34375 L 240.566406 157.21875 C 240.566406 158.917969 239.175781 160.300781 237.472656 160.300781 C 235.769531 160.300781 234.382812 158.917969 234.382812 157.21875 Z M 234.382812 157.21875 " fill-opacity="1" fill-rule="nonzero"/><path fill="#000000" d="M 111.378906 157.21875 L 111.378906 27.34375 C 111.378906 25.644531 112.765625 24.257812 114.46875 24.257812 C 116.171875 24.257812 117.5625 25.644531 117.5625 27.34375 L 117.5625 157.21875 C 117.5625 158.917969 116.171875 160.300781 114.46875 160.300781 C 112.765625 160.300781 111.378906 158.917969 111.378906 157.21875 Z M 111.378906 157.21875 " fill-opacity="1" fill-rule="nonzero"/><path fill="#f7f2e2" d="M 474.894531 23.316406 L 474.894531 157.21875 L -23.425781 157.21875 L -23.425781 23.316406 Z M 474.894531 23.316406 " fill-opacity="1" fill-rule="nonzero"/><g clip-path="url(#83255314f9)"><path fill="#000000" d="M -26.203125 157.21875 L -26.203125 23.316406 C -26.203125 21.773438 -24.972656 20.546875 -23.425781 20.546875 L 474.894531 20.546875 C 476.441406 20.546875 477.671875 21.773438 477.671875 23.316406 L 477.671875 157.21875 C 477.671875 158.757812 476.441406 159.984375 474.894531 159.984375 L -23.425781 159.984375 C -24.972656 159.984375 -26.203125 158.757812 -26.203125 157.21875 Z M -20.652344 26.085938 L -20.652344 154.449219 L 472.121094 154.449219 L 472.121094 26.085938 Z M -20.652344 26.085938 " fill-opacity="1" fill-rule="nonzero"/></g><path fill="#000000" d="M 474.894531 2.171875 L 474.894531 23.316406 L -23.425781 23.316406 L -23.425781 2.171875 Z M 474.894531 2.171875 " fill-opacity="1" fill-rule="nonzero"/><g clip-path="url(#b3730f8e6a)"><path fill="#000000" d="M -26.203125 23.316406 L -26.203125 2.171875 C -26.203125 0.632812 -24.972656 -0.59375 -23.425781 -0.59375 L 474.894531 -0.59375 C 476.441406 -0.59375 477.671875 0.632812 477.671875 2.171875 L 477.671875 23.316406 C 477.671875 24.855469 476.441406 26.085938 474.894531 26.085938 L -23.425781 26.085938 C -24.972656 26.085938 -26.203125 24.855469 -26.203125 23.316406 Z M -20.652344 4.941406 L -20.652344 20.546875 L 472.121094 20.546875 L 472.121094 4.941406 Z M -20.652344 4.941406 " fill-opacity="1" fill-rule="nonzero"/></g><path fill="#f7f2e2" d="M 454.175781 11.582031 C 454.175781 10.070312 455.40625 8.875 456.886719 8.875 L 465.054688 8.875 C 466.570312 8.875 467.769531 10.101562 467.769531 11.582031 C 467.769531 13.058594 466.539062 14.285156 465.054688 14.285156 L 456.886719 14.285156 C 455.371094 14.285156 454.175781 13.058594 454.175781 11.582031 Z M 454.175781 11.582031 " fill-opacity="1" fill-rule="nonzero"/><path fill="#f7f2e2" d="M 7.796875 11.582031 C 7.796875 10.070312 9.027344 8.875 10.507812 8.875 L 26.4375 8.875 C 27.949219 8.875 29.148438 10.101562 29.148438 11.582031 C 29.148438 13.058594 27.917969 14.285156 26.4375 14.285156 L 10.507812 14.285156 C 9.027344 14.285156 7.796875 13.058594 7.796875 11.582031 Z M 39.683594 11.582031 C 39.683594 10.070312 40.914062 8.875 42.394531 8.875 L 58.324219 8.875 C 59.835938 8.875 61.035156 10.101562 61.035156 11.582031 C 61.035156 13.058594 59.804688 14.285156 58.324219 14.285156 L 42.394531 14.285156 C 40.914062 14.285156 39.683594 13.058594 39.683594 11.582031 Z M 71.570312 11.582031 C 71.570312 10.070312 72.800781 8.875 74.28125 8.875 L 90.210938 8.875 C 91.722656 8.875 92.921875 10.101562 92.921875 11.582031 C 92.921875 13.058594 91.691406 14.285156 90.210938 14.285156 L 74.28125 14.285156 C 72.769531 14.285156 71.570312 13.058594 71.570312 11.582031 Z M 103.457031 11.582031 C 103.457031 10.070312 104.6875 8.875 106.167969 8.875 L 122.097656 8.875 C 123.609375 8.875 124.808594 10.101562 124.808594 11.582031 C 124.808594 13.058594 123.578125 14.285156 122.097656 14.285156 L 106.167969 14.285156 C 104.65625 14.285156 103.457031 13.058594 103.457031 11.582031 Z M 135.34375 11.582031 C 135.34375 10.070312 136.574219 8.875 138.054688 8.875 L 153.980469 8.875 C 155.496094 8.875 156.695312 10.101562 156.695312 11.582031 C 156.695312 13.058594 155.464844 14.285156 153.980469 14.285156 L 138.054688 14.285156 C 136.542969 14.285156 135.34375 13.058594 135.34375 11.582031 Z M 167.230469 11.582031 C 167.230469 10.070312 168.457031 8.875 169.941406 8.875 L 185.867188 8.875 C 187.382812 8.875 188.582031 10.101562 188.582031 11.582031 C 188.582031 13.058594 187.351562 14.285156 185.867188 14.285156 L 169.941406 14.285156 C 168.425781 14.285156 167.230469 13.058594 167.230469 11.582031 Z M 199.082031 11.582031 C 199.082031 10.070312 200.3125 8.875 201.796875 8.875 L 217.722656 8.875 C 219.238281 8.875 220.4375 10.101562 220.4375 11.582031 C 220.4375 13.058594 219.207031 14.285156 217.722656 14.285156 L 201.796875 14.285156 C 200.3125 14.285156 199.082031 13.058594 199.082031 11.582031 Z M 230.96875 11.582031 C 230.96875 10.070312 232.199219 8.875 233.683594 8.875 L 249.609375 8.875 C 251.125 8.875 252.324219 10.101562 252.324219 11.582031 C 252.324219 13.058594 251.09375 14.285156 249.609375 14.285156 L 233.683594 14.285156 C 232.199219 14.285156 230.96875 13.058594 230.96875 11.582031 Z M 262.855469 11.582031 C 262.855469 10.070312 264.085938 8.875 265.570312 8.875 L 281.496094 8.875 C 283.011719 8.875 284.207031 10.101562 284.207031 11.582031 C 284.207031 13.058594 282.980469 14.285156 281.496094 14.285156 L 265.570312 14.285156 C 264.085938 14.285156 262.855469 13.058594 262.855469 11.582031 Z M 294.742188 11.582031 C 294.742188 10.070312 295.972656 8.875 297.457031 8.875 L 313.414062 8.875 C 314.929688 8.875 316.125 10.101562 316.125 11.582031 C 316.125 13.058594 314.894531 14.285156 313.414062 14.285156 L 297.488281 14.285156 C 295.972656 14.285156 294.742188 13.058594 294.742188 11.582031 Z M 326.628906 11.582031 C 326.628906 10.070312 327.859375 8.875 329.339844 8.875 L 345.269531 8.875 C 346.78125 8.875 347.980469 10.101562 347.980469 11.582031 C 347.980469 13.058594 346.75 14.285156 345.269531 14.285156 L 329.339844 14.285156 C 327.859375 14.285156 326.628906 13.058594 326.628906 11.582031 Z M 358.515625 11.582031 C 358.515625 10.070312 359.746094 8.875 361.226562 8.875 L 377.15625 8.875 C 378.667969 8.875 379.867188 10.101562 379.867188 11.582031 C 379.867188 13.058594 378.636719 14.285156 377.15625 14.285156 L 361.226562 14.285156 C 359.746094 14.285156 358.515625 13.058594 358.515625 11.582031 Z M 390.402344 11.582031 C 390.402344 10.070312 391.632812 8.875 393.113281 8.875 L 409.042969 8.875 C 410.554688 8.875 411.753906 10.101562 411.753906 11.582031 C 411.753906 13.058594 410.523438 14.285156 409.042969 14.285156 L 393.113281 14.285156 C 391.632812 14.285156 390.402344 13.058594 390.402344 11.582031 Z M 422.289062 11.582031 C 422.289062 10.070312 423.519531 8.875 425 8.875 L 440.929688 8.875 C 442.441406 8.875 443.640625 10.101562 443.640625 11.582031 C 443.640625 13.058594 442.410156 14.285156 440.929688 14.285156 L 425 14.285156 C 423.519531 14.285156 422.289062 13.058594 422.289062 11.582031 Z M 422.289062 11.582031 " fill-opacity="1" fill-rule="nonzero"/><path fill="#000000" d="M 474.894531 157.21875 L 474.894531 178.359375 L -23.425781 178.359375 L -23.425781 157.21875 Z M 474.894531 157.21875 " fill-opacity="1" fill-rule="nonzero"/><g clip-path="url(#5796af618e)"><path fill="#000000" d="M -26.203125 178.359375 L -26.203125 157.21875 C -26.203125 155.675781 -24.972656 154.449219 -23.425781 154.449219 L 474.894531 154.449219 C 476.441406 154.449219 477.671875 155.675781 477.671875 157.21875 L 477.671875 178.359375 C 477.671875 179.902344 476.441406 181.128906 474.894531 181.128906 L -23.425781 181.128906 C -24.972656 181.128906 -26.203125 179.902344 -26.203125 178.359375 Z M -20.652344 159.984375 L -20.652344 175.589844 L 472.121094 175.589844 L 472.121094 159.984375 Z M -20.652344 159.984375 " fill-opacity="1" fill-rule="nonzero"/></g><path fill="#f7f2e2" d="M 454.175781 166.625 C 454.175781 165.113281 455.40625 163.917969 456.886719 163.917969 L 465.054688 163.917969 C 466.570312 163.917969 467.769531 165.144531 467.769531 166.625 C 467.769531 168.101562 466.539062 169.332031 465.054688 169.332031 L 456.886719 169.332031 C 455.371094 169.332031 454.175781 168.101562 454.175781 166.625 Z M 454.175781 166.625 " fill-opacity="1" fill-rule="nonzero"/><path fill="#f7f2e2" d="M 7.796875 166.625 C 7.796875 165.113281 9.027344 163.917969 10.507812 163.917969 L 26.4375 163.917969 C 27.949219 163.917969 29.148438 165.144531 29.148438 166.625 C 29.148438 168.101562 27.917969 169.332031 26.4375 169.332031 L 10.507812 169.332031 C 9.027344 169.332031 7.796875 168.101562 7.796875 166.625 Z M 39.683594 166.625 C 39.683594 165.113281 40.914062 163.917969 42.394531 163.917969 L 58.324219 163.917969 C 59.835938 163.917969 61.035156 165.144531 61.035156 166.625 C 61.035156 168.101562 59.804688 169.332031 58.324219 169.332031 L 42.394531 169.332031 C 40.914062 169.332031 39.683594 168.101562 39.683594 166.625 Z M 71.570312 166.625 C 71.570312 165.113281 72.800781 163.917969 74.28125 163.917969 L 90.210938 163.917969 C 91.722656 163.917969 92.921875 165.144531 92.921875 166.625 C 92.921875 168.101562 91.691406 169.332031 90.210938 169.332031 L 74.28125 169.332031 C 72.769531 169.332031 71.570312 168.101562 71.570312 166.625 Z M 103.457031 166.625 C 103.457031 165.113281 104.6875 163.917969 106.167969 163.917969 L 122.097656 163.917969 C 123.609375 163.917969 124.808594 165.144531 124.808594 166.625 C 124.808594 168.101562 123.578125 169.332031 122.097656 169.332031 L 106.167969 169.332031 C 104.65625 169.332031 103.457031 168.101562 103.457031 166.625 Z M 135.34375 166.625 C 135.34375 165.113281 136.574219 163.917969 138.054688 163.917969 L 153.980469 163.917969 C 155.496094 163.917969 156.695312 165.144531 156.695312 166.625 C 156.695312 168.101562 155.464844 169.332031 153.980469 169.332031 L 138.054688 169.332031 C 136.542969 169.332031 135.34375 168.101562 135.34375 166.625 Z M 167.230469 166.625 C 167.230469 165.113281 168.457031 163.917969 169.941406 163.917969 L 185.867188 163.917969 C 187.382812 163.917969 188.582031 165.144531 188.582031 166.625 C 188.582031 168.101562 187.351562 169.332031 185.867188 169.332031 L 169.941406 169.332031 C 168.425781 169.332031 167.230469 168.101562 167.230469 166.625 Z M 199.082031 166.625 C 199.082031 165.113281 200.3125 163.917969 201.796875 163.917969 L 217.722656 163.917969 C 219.238281 163.917969 220.4375 165.144531 220.4375 166.625 C 220.4375 168.101562 219.207031 169.332031 217.722656 169.332031 L 201.796875 169.332031 C 200.3125 169.332031 199.082031 168.101562 199.082031 166.625 Z M 230.96875 166.625 C 230.96875 165.113281 232.199219 163.917969 233.683594 163.917969 L 249.609375 163.917969 C 251.125 163.917969 252.324219 165.144531 252.324219 166.625 C 252.324219 168.101562 251.09375 169.332031 249.609375 169.332031 L 233.683594 169.332031 C 232.199219 169.332031 230.96875 168.101562 230.96875 166.625 Z M 262.855469 166.625 C 262.855469 165.113281 264.085938 163.917969 265.570312 163.917969 L 281.496094 163.917969 C 283.011719 163.917969 284.207031 165.144531 284.207031 166.625 C 284.207031 168.101562 282.980469 169.332031 281.496094 169.332031 L 265.570312 169.332031 C 264.085938 169.332031 262.855469 168.101562 262.855469 166.625 Z M 294.742188 166.625 C 294.742188 165.113281 295.972656 163.917969 297.457031 163.917969 L 313.414062 163.917969 C 314.929688 163.917969 316.125 165.144531 316.125 166.625 C 316.125 168.101562 314.894531 169.332031 313.414062 169.332031 L 297.488281 169.332031 C 295.972656 169.332031 294.742188 168.101562 294.742188 166.625 Z M 326.628906 166.625 C 326.628906 165.113281 327.859375 163.917969 329.339844 163.917969 L 345.269531 163.917969 C 346.78125 163.917969 347.980469 165.144531 347.980469 166.625 C 347.980469 168.101562 346.75 169.332031 345.269531 169.332031 L 329.339844 169.332031 C 327.859375 169.332031 326.628906 168.101562 326.628906 166.625 Z M 358.515625 166.625 C 358.515625 165.113281 359.746094 163.917969 361.226562 163.917969 L 377.15625 163.917969 C 378.667969 163.917969 379.867188 165.144531 379.867188 166.625 C 379.867188 168.101562 378.636719 169.332031 377.15625 169.332031 L 361.226562 169.332031 C 359.746094 169.332031 358.515625 168.101562 358.515625 166.625 Z M 390.402344 166.625 C 390.402344 165.113281 391.632812 163.917969 393.113281 163.917969 L 409.042969 163.917969 C 410.554688 163.917969 411.753906 165.144531 411.753906 166.625 C 411.753906 168.101562 410.523438 169.332031 409.042969 169.332031 L 393.113281 169.332031 C 391.632812 169.332031 390.402344 168.101562 390.402344 166.625 Z M 422.289062 166.625 C 422.289062 165.113281 423.519531 163.917969 425 163.917969 L 440.929688 163.917969 C 442.441406 163.917969 443.640625 165.144531 443.640625 166.625 C 443.640625 168.101562 442.410156 169.332031 440.929688 169.332031 L 425 169.332031 C 423.519531 169.332031 422.289062 168.101562 422.289062 166.625 Z M 422.289062 166.625 " fill-opacity="1" fill-rule="nonzero"/><path fill="#000000" d="M 351.957031 157.21875 L 351.957031 27.34375 C 351.957031 25.644531 353.34375 24.257812 355.046875 24.257812 C 356.75 24.257812 358.136719 25.644531 358.136719 27.34375 L 358.136719 157.21875 C 358.136719 158.917969 356.75 160.300781 355.046875 160.300781 C 353.34375 160.300781 351.957031 158.917969 351.957031 157.21875 Z M 351.957031 157.21875 " fill-opacity="1" fill-rule="nonzero"/><path fill="#000000" d="M 238.414062 157.21875 L 238.414062 27.34375 C 238.414062 25.644531 239.800781 24.257812 241.503906 24.257812 C 243.207031 24.257812 244.59375 25.644531 244.59375 27.34375 L 244.59375 157.21875 C 244.59375 158.917969 243.207031 160.300781 241.503906 160.300781 C 239.800781 160.300781 238.414062 158.917969 238.414062 157.21875 Z M 238.414062 157.21875 " fill-opacity="1" fill-rule="nonzero"/><path fill="#000000" d="M 115.410156 157.21875 L 115.410156 27.34375 C 115.410156 25.644531 116.796875 24.257812 118.5 24.257812 C 120.203125 24.257812 121.589844 25.644531 121.589844 27.34375 L 121.589844 157.21875 C 121.589844 158.917969 120.203125 160.300781 118.5 160.300781 C 116.796875 160.300781 115.410156 158.917969 115.410156 157.21875 Z M 115.410156 157.21875 " fill-opacity="1" fill-rule="nonzero"/><g fill="#000000" fill-opacity="1"><g transform="translate(3.318723, 103.635482)"><g><path d="M 46.84375 -28.75 C 45.578125 -28.46875 44.515625 -27.984375 43.703125 -26.828125 C 42.359375 -24.921875 41.78125 -22.703125 41.328125 -20.5 C 41 -18.78125 40.59375 -17.109375 40.359375 -15.4375 C 40.109375 -13.921875 39.625 -12.5 39.375 -10.984375 C 39.296875 -10.5 39.25 -9.921875 38.921875 -9.4375 C 38.84375 -9.515625 38.765625 -9.5625 38.765625 -9.59375 C 38.0625 -11.765625 37.328125 -13.921875 36.71875 -16.140625 C 36.234375 -17.890625 35.78125 -19.6875 35.28125 -21.4375 C 35.203125 -21.734375 35.125 -21.96875 35.078125 -22.265625 C 34.640625 -24.015625 34.140625 -25.765625 33.734375 -27.53125 C 33.65625 -28.015625 33.40625 -28.3125 32.953125 -28.59375 C 29.609375 -28.46875 26.1875 -28.75 22.796875 -28.34375 C 22.703125 -28.0625 22.671875 -27.859375 22.59375 -27.65625 C 21.890625 -25.28125 21.5625 -22.828125 20.953125 -20.46875 C 20.140625 -17.359375 19.4375 -14.171875 18.671875 -11.0625 C 18.546875 -10.578125 18.5 -10.046875 18.09375 -9.59375 C 17.96875 -9.84375 17.890625 -9.96875 17.84375 -10.171875 C 17.078125 -13.15625 16.09375 -16.140625 15.515625 -19.203125 C 14.984375 -22.0625 14.046875 -24.828125 13.515625 -27.6875 C 13.4375 -28.3125 13.109375 -28.546875 12.5 -28.515625 C 11.59375 -28.421875 10.703125 -28.546875 9.84375 -28.515625 C 8.625 -28.46875 7.390625 -28.421875 6.171875 -28.421875 C 4.78125 -28.390625 3.4375 -28.421875 2.046875 -28.421875 C 1.71875 -28.421875 1.265625 -28.515625 1.015625 -28.265625 C 1.015625 -27.9375 1.0625 -27.53125 1.1875 -27.25 C 1.640625 -25.8125 1.84375 -24.421875 2.40625 -23 C 2.703125 -22.34375 2.90625 -21.640625 3.0625 -21 C 3.640625 -18.171875 4.453125 -15.4375 5.3125 -12.703125 C 5.84375 -10.953125 6.40625 -9.1875 6.9375 -7.4375 L 8.734375 -1.21875 C 8.859375 -0.78125 9.0625 -0.375 9.390625 -0.046875 C 9.84375 0.046875 10.296875 0 10.703125 0 C 12.09375 0.046875 13.484375 0 14.859375 0.078125 C 16.296875 0.203125 17.765625 0.15625 19.203125 0.15625 C 19.6875 0.15625 20.046875 -0.125 20.140625 -0.578125 C 20.296875 -1.75 20.75 -2.90625 21 -4.046875 C 21.359375 -5.5625 21.6875 -7.0625 22.140625 -8.53125 L 23.609375 -13.28125 C 24.09375 -14.828125 24.546875 -16.375 24.921875 -18.015625 C 25.15625 -17.9375 25.234375 -17.84375 25.234375 -17.71875 C 25.8125 -15.515625 26.546875 -13.359375 27.03125 -11.15625 C 27.328125 -9.6875 27.6875 -8.203125 28.140625 -6.78125 C 28.828125 -4.734375 29.484375 -2.703125 29.890625 -0.578125 C 29.984375 -0.328125 30.109375 -0.15625 30.1875 -0.125 C 33.9375 -0.15625 37.578125 0.28125 41.125 -0.25 C 41.421875 -0.609375 41.5 -0.984375 41.578125 -1.390625 C 42.0625 -3.546875 42.59375 -5.765625 43.25 -7.890625 C 43.828125 -9.890625 44.109375 -11.921875 44.5625 -13.921875 C 45.21875 -16.90625 45.875 -19.890625 46.6875 -22.796875 C 46.8125 -23.203125 46.96875 -23.609375 47.25 -23.9375 C 47.78125 -24.59375 48.640625 -24.703125 49.34375 -24.59375 C 49.34375 -24.875 49.46875 -25.125 49.46875 -25.484375 L 49.46875 -27.203125 C 49.5 -27.734375 49.546875 -28.21875 49.25 -28.71875 C 48.4375 -28.796875 47.625 -28.953125 46.84375 -28.75 Z M 46.84375 -28.75 "/></g></g></g><g fill="#000000" fill-opacity="1"><g transform="translate(53.954669, 103.635482)"><g><path d="M 6.53125 -28.546875 C 5.265625 -28.546875 4.046875 -28.390625 2.78125 -28.34375 C 2.328125 -28.34375 2.484375 -27.28125 2.484375 -26.953125 C 2.453125 -25.9375 2.578125 -24.921875 2.484375 -23.859375 C 2.40625 -22.796875 2.484375 -21.734375 2.484375 -19.359375 C 2.65625 -18.34375 2.453125 -17.359375 2.53125 -16.34375 C 2.703125 -14.75 2.484375 -13.15625 2.53125 -11.515625 C 2.609375 -10.09375 2.53125 -8.65625 2.609375 -7.234375 C 2.609375 -6.734375 2.703125 -6.203125 2.609375 -5.71875 C 2.578125 -5.234375 2.578125 -4.734375 2.609375 -4.25 C 2.734375 -3.109375 2.53125 -2 2.578125 -0.90625 C 2.609375 -0.25 2.484375 -0.046875 3.015625 0.203125 C 3.109375 0.15625 3.34375 0.125 3.4375 0.125 C 6.78125 0.078125 10.171875 -0.125 13.5625 -0.046875 C 13.8125 -0.046875 13.84375 -0.328125 13.890625 -0.40625 C 13.59375 -4.203125 13.71875 -7.921875 13.8125 -11.640625 C 14.09375 -11.765625 19.9375 -11.796875 20.140625 -11.71875 C 20.140625 -11.4375 20.09375 -11.109375 20.140625 -10.78125 C 20.296875 -9.515625 20.265625 -8.296875 20.21875 -6.984375 C 20.171875 -6.046875 20.09375 -5.0625 20.140625 -4.125 C 20.171875 -2.9375 20.015625 -1.75 20.140625 -0.609375 C 20.21875 -0.15625 20.375 0.125 20.796875 0 C 21.4375 -0.125 22.140625 -0.046875 22.796875 0 C 23.9375 0 25.078125 -0.125 26.1875 0 C 27.15625 0.125 28.140625 -0.078125 29.125 -0.046875 C 29.78125 0 30.421875 -0.046875 31.125 -0.078125 C 31.15625 -0.28125 31.328125 -0.53125 31.28125 -0.6875 C 31.15625 -1.71875 31.15625 -2.703125 31.15625 -3.71875 C 31.203125 -4.90625 31.15625 -6.078125 31.25 -7.265625 C 31.28125 -8.9375 31.328125 -10.578125 31.328125 -12.25 C 31.375 -12.953125 31.15625 -13.59375 31.15625 -14.296875 C 31.203125 -15.1875 31.28125 -16.140625 31.25 -17.078125 C 31.125 -18.953125 31.328125 -20.796875 31.15625 -22.671875 C 31.046875 -23.890625 31.28125 -25.15625 31.203125 -26.390625 C 31.15625 -27 31.328125 -27.609375 31.203125 -28.21875 C 30.796875 -28.515625 30.34375 -28.59375 29.890625 -28.515625 C 29.203125 -28.390625 28.515625 -28.515625 27.78125 -28.46875 C 27.078125 -28.421875 26.34375 -28.515625 25.65625 -28.421875 C 24.828125 -28.34375 24.015625 -28.390625 23.234375 -28.265625 C 22.21875 -28.140625 21.234375 -28.546875 20.140625 -28.21875 C 20.015625 -24.265625 20.34375 -20.34375 20.046875 -16.375 C 19.890625 -16.375 19.734375 -16.421875 19.609375 -16.421875 C 18.875 -16.34375 18.171875 -16.296875 17.484375 -16.25 L 15.71875 -16.25 C 15.03125 -16.171875 14.625 -16.34375 13.921875 -16.25 C 13.96875 -16.546875 13.96875 -16.78125 13.96875 -17.03125 C 13.921875 -18.171875 13.890625 -19.28125 13.890625 -20.421875 C 13.890625 -20.625 13.84375 -20.875 13.84375 -21.078125 C 13.8125 -21.890625 13.640625 -22.703125 13.71875 -23.53125 C 13.84375 -24.703125 13.890625 -25.890625 13.84375 -27.078125 C 13.8125 -27.53125 13.84375 -28.015625 13.5625 -28.390625 C 13.4375 -28.515625 13.28125 -28.46875 13.109375 -28.46875 L 9.96875 -28.46875 C 8.828125 -28.46875 7.671875 -28.546875 6.53125 -28.546875 Z M 6.53125 -28.546875 "/></g></g></g><g fill="#000000" fill-opacity="1"><g transform="translate(87.807249, 103.635482)"><g><path d="M 19.765625 -28.921875 C 18.625 -28.921875 17.484375 -28.828125 16.375 -28.828125 C 15.359375 -28.828125 14.375 -28.796875 13.359375 -28.921875 C 12.90625 -28.953125 12.453125 -28.875 12.046875 -28.828125 C 11.390625 -27.359375 10.984375 -25.890625 10.375 -24.5 C 9.71875 -23 9.359375 -21.40625 8.578125 -19.9375 C 8 -18.875 7.84375 -17.640625 7.390625 -16.546875 C 7.0625 -15.8125 6.90625 -14.984375 6.578125 -14.296875 C 5.84375 -12.78125 5.234375 -11.1875 4.578125 -9.640625 C 4.25 -8.859375 4.046875 -8.09375 3.671875 -7.359375 C 3.109375 -6.296875 2.734375 -5.140625 2.375 -4.046875 C 2.046875 -2.984375 1.515625 -2 1.109375 -0.984375 C 0.9375 -0.53125 1.015625 -0.28125 1.1875 0 C 2.453125 -0.046875 3.671875 -0.125 5.109375 -0.078125 C 5.515625 -0.734375 5.71875 -1.71875 6.125 -2.578125 C 6.578125 -3.515625 6.90625 -4.453125 7.3125 -5.46875 C 10.828125 -5.265625 14.34375 -5.765625 17.890625 -5.4375 C 18.546875 -3.59375 19.3125 -1.75 19.9375 0.078125 C 20.296875 0.25 20.625 0 20.90625 0.046875 C 22.796875 0.078125 24.671875 0.046875 26.546875 -0.078125 C 27.734375 -0.15625 28.921875 0 30.109375 -0.203125 C 30.46875 -0.28125 30.953125 -0.046875 31.25 -0.578125 C 27.328125 -9.84375 24.21875 -19.4375 20.21875 -28.75 C 20.140625 -28.796875 19.9375 -28.921875 19.765625 -28.921875 Z M 12.828125 -19.734375 C 14.09375 -16.375 15.15625 -12.953125 16.421875 -9.5625 C 13.84375 -9.46875 11.359375 -9.3125 8.859375 -9.46875 C 10.25 -12.828125 11.234375 -16.375 12.828125 -19.734375 Z M 12.828125 -19.734375 "/></g></g></g><g fill="#000000" fill-opacity="1"><g transform="translate(120.148918, 103.635482)"><g><path d="M 26.34375 -28.75 C 23.65625 -28.671875 20.90625 -28.671875 18.21875 -28.546875 C 14.953125 -28.421875 11.6875 -28.625 8.375 -28.390625 C 6.65625 -28.3125 4.90625 -28.390625 3.1875 -28.34375 C 2.703125 -28.34375 2.203125 -28.421875 1.75 -28.1875 C 1.46875 -26.921875 1.953125 -25.6875 1.640625 -24.46875 C 2 -24.0625 2.453125 -24.0625 2.90625 -24.09375 C 3.96875 -24.21875 5.03125 -24.265625 6.078125 -24.171875 C 6.9375 -24.140625 7.84375 -24.21875 8.65625 -24.0625 C 8.90625 -23.8125 8.859375 -23.609375 8.859375 -23.40625 C 8.90625 -21.640625 9.15625 -19.9375 8.984375 -18.21875 C 8.859375 -16.90625 8.984375 -15.609375 8.984375 -14.34375 C 8.9375 -11.796875 8.90625 -9.3125 9.0625 -6.78125 C 9.15625 -4.90625 9.1875 -2.984375 8.9375 -1.0625 C 8.90625 -0.609375 8.859375 -0.15625 9.3125 0.125 C 12.90625 -0.203125 16.546875 0.203125 20.140625 -0.046875 C 20.375 -0.484375 20.34375 -0.859375 20.34375 -1.1875 C 20.296875 -2.046875 20.140625 -2.859375 20.171875 -3.671875 C 20.296875 -5.875 20.21875 -8.09375 20.140625 -10.296875 C 20.09375 -11.265625 20.34375 -12.25 20.34375 -13.234375 C 20.34375 -14.375 20.265625 -15.515625 20.21875 -16.671875 C 20.09375 -18.34375 20.171875 -20.015625 20.015625 -21.640625 C 19.96875 -22.421875 19.890625 -23.203125 20.140625 -24.015625 C 22.421875 -24.09375 24.75 -24.34375 27.125 -24.390625 C 27.734375 -25.765625 27 -27.15625 27.28125 -28.421875 C 27 -28.75 26.671875 -28.75 26.34375 -28.75 Z M 26.34375 -28.75 "/></g></g></g><g fill="#000000" fill-opacity="1"><g transform="translate(148.937904, 103.635482)"><g/></g></g><g fill="#000000" fill-opacity="1"><g transform="translate(159.963473, 103.635482)"><g><path d="M 21.734375 -28.671875 C 18.625 -28.71875 15.515625 -28.3125 12.421875 -28.421875 C 10.953125 -28.46875 9.46875 -28.390625 8 -28.390625 C 6.5 -28.390625 4.984375 -28.515625 3.46875 -28.421875 C 3.140625 -28.421875 2.859375 -28.390625 2.609375 -28.015625 C 2.609375 -25.765625 2.578125 -23.4375 2.609375 -21.109375 L 2.609375 -7.0625 C 2.578125 -4.78125 2.40625 -2.453125 2.484375 -0.078125 L 13.6875 -0.078125 C 13.6875 -3.390625 13.359375 -6.578125 13.5625 -9.796875 C 16.421875 -6.578125 19 -3.234375 22.0625 -0.078125 C 22.265625 -0.078125 22.59375 -0.125 22.953125 -0.078125 C 24.546875 0.046875 26.140625 -0.125 27.734375 0.078125 C 29.65625 0.25 31.53125 0.25 33.453125 0.15625 C 33.78125 0.15625 33.984375 0.046875 34.1875 -0.375 C 32.75 -2.046875 31.15625 -3.640625 29.65625 -5.3125 C 28.140625 -6.984375 26.625 -8.703125 25.078125 -10.453125 C 25.5625 -10.578125 25.984375 -10.703125 26.421875 -10.859375 C 28.71875 -11.59375 30.390625 -13.109375 31.328125 -15.3125 C 32.265625 -17.40625 32.265625 -19.609375 31.8125 -21.8125 C 31.203125 -24.671875 29.25 -26.46875 26.71875 -27.609375 C 25.8125 -27.984375 24.953125 -28.46875 23.9375 -28.546875 C 23.203125 -28.625 22.46875 -28.671875 21.734375 -28.671875 Z M 15.15625 -24.0625 C 16.296875 -24.0625 17.40625 -24.140625 18.546875 -23.765625 C 19.28125 -23.5625 19.890625 -23.15625 20.296875 -22.5 C 20.75 -21.765625 21.203125 -21 21.109375 -20.015625 C 21.109375 -19.4375 21.234375 -18.875 21.234375 -18.296875 C 21.234375 -16.25 20.21875 -15.28125 18.46875 -14.625 C 18.015625 -14.421875 17.484375 -14.34375 16.953125 -14.375 C 15.890625 -14.421875 14.859375 -14.296875 13.6875 -14.453125 C 13.5625 -17.640625 13.4375 -20.796875 13.640625 -23.9375 C 14.171875 -24.21875 14.703125 -24.09375 15.15625 -24.0625 Z M 15.15625 -24.0625 "/></g></g></g><g fill="#000000" fill-opacity="1"><g transform="translate(195.245294, 103.635482)"><g><path d="M 26.265625 -28.59375 L 25.9375 -28.59375 C 24.625 -28.59375 23.328125 -28.671875 22.0625 -28.546875 C 20.75 -28.421875 19.4375 -28.59375 18.171875 -28.515625 C 16.875 -28.390625 15.515625 -28.546875 14.21875 -28.46875 C 13.3125 -28.421875 12.375 -28.46875 11.484375 -28.421875 C 8.90625 -28.3125 6.328125 -28.515625 3.75 -28.390625 C 3.390625 -28.390625 3.1875 -28.46875 2.8125 -28.34375 C 2.734375 -28.21875 2.53125 -28.1875 2.453125 -28.09375 C 2.484375 -27.5625 2.65625 -24.546875 2.578125 -20.703125 C 2.484375 -19.5625 2.484375 -18.421875 2.453125 -17.28125 C 2.453125 -16.140625 2.484375 -14.953125 2.484375 -13.8125 C 2.484375 -12.703125 2.578125 -11.640625 2.65625 -10.53125 C 2.734375 -9.84375 2.703125 -9.15625 2.703125 -8.453125 C 2.703125 -7.59375 2.734375 -6.703125 2.65625 -5.875 C 2.578125 -5.03125 2.578125 -4.25 2.65625 -3.4375 C 2.734375 -2.28125 2.78125 -1.109375 2.703125 0.046875 C 2.703125 0.203125 3.796875 0.046875 4.171875 0.046875 C 5.234375 0.046875 6.25 0.125 7.265625 0.203125 C 8.171875 0.25 11.5625 0.046875 12.046875 0.046875 C 14.34375 0.046875 16.625 0.078125 18.875 0 C 20.625 -0.046875 22.375 -0.15625 24.140625 -0.046875 C 25.53125 0.046875 26.875 -0.203125 28.265625 -0.15625 C 28.828125 -0.125 29.125 -0.453125 29.078125 -1.015625 L 29.078125 -4.078125 C 28.21875 -4.53125 27.40625 -4.125 26.59375 -4.125 C 25.234375 -4.125 23.859375 -4.171875 22.5 -4 C 21.84375 -3.96875 21.15625 -4.078125 20.546875 -3.96875 C 19.484375 -3.796875 18.46875 -3.84375 17.40625 -3.75 C 16.578125 -3.71875 15.6875 -3.75 14.828125 -3.796875 C 14.453125 -3.84375 14.046875 -3.671875 13.71875 -3.921875 C 13.59375 -6.734375 13.359375 -9.5625 13.5625 -12.421875 L 16.578125 -12.421875 C 17.15625 -12.421875 17.71875 -12.421875 18.296875 -12.453125 C 19.765625 -12.5 21.203125 -12.578125 22.671875 -12.578125 C 23.4375 -12.578125 24.21875 -12.625 25 -12.625 C 25.40625 -12.625 25.65625 -12.953125 25.65625 -13.359375 C 25.609375 -14.25 25.5625 -15.15625 25.609375 -16.09375 C 25.65625 -16.671875 25.328125 -16.984375 24.75 -17.03125 C 24.0625 -17.078125 23.359375 -17.03125 22.671875 -16.984375 C 21.234375 -16.953125 19.8125 -16.828125 18.375 -16.828125 C 17.71875 -16.875 17.078125 -16.90625 16.421875 -16.78125 C 15.484375 -16.671875 14.578125 -16.953125 13.640625 -16.828125 C 13.359375 -19.3125 13.640625 -22.015625 13.5625 -24.46875 C 18.171875 -24.875 22.828125 -24.59375 27.453125 -24.671875 C 27.484375 -24.875 27.5625 -25.078125 27.53125 -25.28125 C 27.453125 -26.015625 27.359375 -26.75 27.484375 -27.53125 C 27.5625 -28.3125 27.078125 -28.671875 26.265625 -28.59375 Z M 26.265625 -28.59375 "/></g></g></g><g fill="#000000" fill-opacity="1"><g transform="translate(225.54519, 103.635482)"><g><path d="M 37.984375 -28.671875 C 37.859375 -28.671875 37.609375 -28.671875 37.453125 -28.625 C 36.0625 -28.625 34.671875 -28.59375 33.28125 -28.515625 C 32.640625 -28.46875 31.9375 -28.421875 31.28125 -28.421875 C 30.140625 -28.421875 29.046875 -28.515625 27.890625 -28.515625 C 27.453125 -28.546875 27.28125 -28.390625 27.125 -28.0625 C 26.796875 -27.359375 26.5 -26.625 26.140625 -25.9375 C 25.359375 -24.46875 24.59375 -23 23.8125 -21.5625 C 23.359375 -20.671875 22.796875 -19.765625 22.34375 -18.875 C 21.9375 -17.96875 21.40625 -17.15625 21.109375 -16.21875 C 21 -15.84375 20.75 -15.515625 20.546875 -15.15625 C 19.4375 -16.546875 18.578125 -18.046875 17.71875 -19.640625 C 16.953125 -21 16.015625 -22.21875 15.3125 -23.609375 C 14.5 -25.234375 13.484375 -26.796875 12.828125 -28.515625 C 12.75 -28.671875 12.578125 -28.671875 12.328125 -28.671875 C 12.046875 -28.671875 11.71875 -28.625 11.4375 -28.625 C 10 -28.59375 8.53125 -28.625 7.109375 -28.625 C 5.59375 -28.59375 4.203125 -28.515625 2.65625 -28.625 C 2.53125 -28.3125 2.40625 -28.015625 2.484375 -27.65625 C 2.53125 -27.25 2.453125 -26.796875 2.484375 -26.296875 C 2.53125 -25.5625 2.578125 -24.828125 2.578125 -24.0625 C 2.53125 -23 2.703125 -21.96875 2.609375 -20.90625 C 2.53125 -19.890625 2.65625 -18.875 2.65625 -17.8125 L 2.65625 -13.890625 C 2.65625 -12.65625 2.65625 -11.484375 2.703125 -10.296875 L 2.65625 -5.59375 C 2.703125 -4.703125 2.65625 -3.796875 2.609375 -2.9375 C 2.578125 -2.125 2.65625 -1.265625 2.578125 -0.484375 C 2.578125 -0.25 2.734375 -0.046875 3.015625 -0.125 C 4 -0.328125 5.5625 -0.15625 6.53125 -0.203125 C 6.984375 -0.25 6.78125 -1.109375 6.78125 -1.265625 C 6.734375 -2.25 6.828125 -3.140625 6.78125 -4.078125 C 6.703125 -5.71875 6.703125 -7.390625 6.734375 -9.0625 C 6.78125 -10.09375 6.78125 -11.1875 6.734375 -12.25 C 6.734375 -13.0625 6.703125 -13.890625 6.65625 -14.703125 C 6.65625 -15.078125 6.78125 -15.484375 6.703125 -15.8125 C 6.578125 -16.546875 6.65625 -17.234375 6.578125 -18.046875 C 6.984375 -17.515625 7.1875 -17.078125 7.46875 -16.625 C 7.890625 -15.96875 8.328125 -15.28125 8.78125 -14.65625 C 9.4375 -13.8125 9.921875 -12.90625 10.453125 -12.015625 C 11.265625 -10.703125 12.09375 -9.3125 12.953125 -8 C 13.390625 -7.265625 13.890625 -6.578125 14.34375 -5.84375 C 14.453125 -5.671875 14.578125 -5.5625 14.75 -5.5625 C 15.109375 -5.5625 15.484375 -5.5625 15.84375 -5.59375 C 17.359375 -5.671875 18.90625 -5.921875 20.375 -5.59375 C 20.828125 -5.515625 21.078125 -5.671875 21.234375 -6.078125 C 21.6875 -7.234375 22.171875 -8.328125 22.75 -9.390625 C 23.9375 -11.71875 25.078125 -14.015625 26.296875 -16.296875 C 26.59375 -16.78125 26.921875 -17.234375 27.28125 -17.71875 C 27.484375 -15.765625 27.203125 -13.890625 27.25 -11.96875 C 27.28125 -10.734375 27.328125 -9.4375 27.25 -8.171875 C 27.125 -6.53125 27.125 -4.9375 27.125 -3.3125 C 27.078125 -2.28125 27 -0.578125 27.15625 -0.15625 C 27.453125 -0.078125 27.53125 0.046875 27.78125 0 C 28.71875 -0.15625 29.65625 -0.046875 30.59375 0 C 32.640625 0.078125 34.671875 -0.25 36.671875 -0.203125 L 38.140625 -0.203125 C 38.4375 -0.453125 38.46875 -0.734375 38.4375 -1.0625 C 38.4375 -1.671875 38.390625 -2.375 38.390625 -2.984375 C 38.390625 -3.59375 38.4375 -4.25 38.359375 -4.859375 C 38.265625 -5.71875 38.3125 -6.53125 38.265625 -7.390625 C 38.234375 -8.296875 38.234375 -9.15625 38.265625 -10.046875 C 38.265625 -10.734375 38.140625 -11.390625 38.1875 -12.046875 C 38.265625 -13.59375 38.3125 -15.15625 38.3125 -16.75 C 38.3125 -17.609375 38.234375 -18.546875 38.3125 -19.40625 C 38.359375 -20.21875 38.265625 -21 38.265625 -21.8125 C 38.3125 -22.828125 38.1875 -23.859375 38.109375 -24.875 L 38.109375 -27.984375 C 38.109375 -28.265625 38.3125 -28.46875 37.984375 -28.671875 Z M 37.984375 -28.671875 "/></g></g></g><g fill="#000000" fill-opacity="1"><g transform="translate(266.503138, 103.635482)"><g><path d="M 19.765625 -28.921875 C 18.625 -28.921875 17.484375 -28.828125 16.375 -28.828125 C 15.359375 -28.828125 14.375 -28.796875 13.359375 -28.921875 C 12.90625 -28.953125 12.453125 -28.875 12.046875 -28.828125 C 11.390625 -27.359375 10.984375 -25.890625 10.375 -24.5 C 9.71875 -23 9.359375 -21.40625 8.578125 -19.9375 C 8 -18.875 7.84375 -17.640625 7.390625 -16.546875 C 7.0625 -15.8125 6.90625 -14.984375 6.578125 -14.296875 C 5.84375 -12.78125 5.234375 -11.1875 4.578125 -9.640625 C 4.25 -8.859375 4.046875 -8.09375 3.671875 -7.359375 C 3.109375 -6.296875 2.734375 -5.140625 2.375 -4.046875 C 2.046875 -2.984375 1.515625 -2 1.109375 -0.984375 C 0.9375 -0.53125 1.015625 -0.28125 1.1875 0 C 2.453125 -0.046875 3.671875 -0.125 5.109375 -0.078125 C 5.515625 -0.734375 5.71875 -1.71875 6.125 -2.578125 C 6.578125 -3.515625 6.90625 -4.453125 7.3125 -5.46875 C 10.828125 -5.265625 14.34375 -5.765625 17.890625 -5.4375 C 18.546875 -3.59375 19.3125 -1.75 19.9375 0.078125 C 20.296875 0.25 20.625 0 20.90625 0.046875 C 22.796875 0.078125 24.671875 0.046875 26.546875 -0.078125 C 27.734375 -0.15625 28.921875 0 30.109375 -0.203125 C 30.46875 -0.28125 30.953125 -0.046875 31.25 -0.578125 C 27.328125 -9.84375 24.21875 -19.4375 20.21875 -28.75 C 20.140625 -28.796875 19.9375 -28.921875 19.765625 -28.921875 Z M 12.828125 -19.734375 C 14.09375 -16.375 15.15625 -12.953125 16.421875 -9.5625 C 13.84375 -9.46875 11.359375 -9.3125 8.859375 -9.46875 C 10.25 -12.828125 11.234375 -16.375 12.828125 -19.734375 Z M 12.828125 -19.734375 "/></g></g></g><g fill="#000000" fill-opacity="1"><g transform="translate(298.844807, 103.635482)"><g><path d="M 13.3125 -28.671875 C 12.53125 -28.546875 11.796875 -28.515625 11.03125 -28.546875 C 10.171875 -28.59375 9.265625 -28.59375 8.375 -28.546875 C 7.84375 -28.515625 7.3125 -28.515625 6.78125 -28.546875 C 6.125 -28.59375 5.46875 -28.75 4.8125 -28.59375 C 4.046875 -28.421875 3.265625 -28.59375 2.453125 -28.46875 C 2.453125 -28.421875 2.53125 -26.75 2.53125 -26.015625 C 2.53125 -25.359375 2.453125 -24.703125 2.484375 -24.0625 C 2.484375 -23.40625 2.609375 -22.796875 2.65625 -22.140625 C 2.734375 -21.234375 2.65625 -20.296875 2.65625 -19.359375 C 2.703125 -18.09375 2.65625 -16.828125 2.65625 -15.5625 C 2.65625 -14.5 2.578125 -13.484375 2.609375 -12.453125 C 2.65625 -10.578125 2.578125 -8.703125 2.53125 -6.828125 C 2.484375 -5.796875 2.53125 -4.78125 2.609375 -3.71875 C 2.703125 -2.78125 2.578125 -1.796875 2.484375 -0.8125 C 2.484375 -0.453125 2.578125 -0.15625 2.90625 0.046875 C 4.125 -0.15625 5.34375 -0.078125 6.578125 -0.046875 C 7.390625 0 8.171875 0.125 8.984375 0.078125 C 10.53125 0.046875 12.09375 -0.203125 13.6875 -0.203125 C 14.046875 -0.203125 14.296875 -0.53125 14.171875 -0.90625 C 14.125 -1.0625 14.09375 -1.21875 14.09375 -1.390625 C 14.09375 -2.734375 14.125 -4.078125 14.09375 -5.390625 C 14.09375 -6.609375 14.125 -7.84375 14.046875 -9.0625 C 13.921875 -10.828125 14.046875 -12.578125 14.09375 -14.34375 C 14.09375 -15.8125 14.125 -17.28125 14.09375 -18.75 C 14.046875 -19.640625 14.125 -20.546875 14.09375 -21.4375 C 14.046875 -23 14.21875 -24.59375 14.125 -26.140625 C 14.09375 -26.71875 14.09375 -27.328125 14.125 -27.890625 C 14.171875 -28.546875 13.921875 -28.71875 13.3125 -28.671875 Z M 13.3125 -28.671875 "/></g></g></g><g fill="#000000" fill-opacity="1"><g transform="translate(315.587337, 103.635482)"><g><path d="M 30.71875 -28.671875 C 29.984375 -28.59375 29.25 -28.625 28.515625 -28.59375 C 28.0625 -28.59375 27.609375 -28.46875 27.125 -28.34375 C 27.359375 -22.46875 27.125 -16.625 27.25 -10.703125 C 22.625 -16.34375 18.25 -22.171875 13.890625 -27.890625 C 13.8125 -28.140625 13.59375 -28.3125 13.390625 -28.515625 C 9.640625 -28.59375 6.25 -28.21875 2.53125 -28.390625 C 2.40625 -28.015625 2.453125 -27.8125 2.453125 -27.5625 C 2.609375 -26.140625 2.609375 -24.75 2.609375 -23.328125 C 2.609375 -22.09375 2.53125 -20.875 2.609375 -19.640625 C 2.703125 -18.953125 2.734375 -18.25 2.703125 -17.5625 C 2.578125 -16.296875 2.609375 -15.03125 2.65625 -13.8125 C 2.734375 -11.890625 2.859375 -10 2.859375 -8.09375 C 2.8125 -6.78125 2.8125 -5.515625 2.734375 -4.203125 C 2.703125 -2.9375 2.703125 -1.796875 2.703125 -0.53125 C 2.703125 -0.328125 2.703125 -0.078125 2.9375 0.078125 C 4.375 -0.328125 5.875 0.203125 7.234375 -0.25 C 7.0625 -2.203125 7.265625 -4.125 7.109375 -6.046875 C 6.984375 -7.96875 6.9375 -9.921875 6.859375 -11.84375 C 6.828125 -13.8125 6.90625 -15.71875 6.734375 -17.6875 C 11.390625 -11.921875 15.84375 -6.046875 20.046875 0 C 20.140625 0.078125 25.203125 -0.046875 26.09375 0 C 27.5625 0.046875 28.59375 -0.078125 30.0625 -0.078125 C 30.265625 -0.078125 30.796875 0 30.953125 -0.046875 C 31.28125 -0.078125 31.40625 -0.28125 31.40625 -0.578125 C 31.40625 -0.90625 31.40625 -1.21875 31.375 -1.546875 C 31.203125 -3.265625 31.40625 -4.9375 31.328125 -6.65625 C 31.25 -7.671875 31.328125 -8.734375 31.28125 -9.765625 C 31.203125 -11.3125 31.15625 -12.859375 31.203125 -14.375 C 31.28125 -16.046875 31.203125 -17.71875 31.25 -19.40625 C 31.28125 -20.578125 31.25 -21.765625 31.203125 -23 C 31.15625 -23.609375 31.125 -24.265625 31.15625 -24.875 C 31.25 -26.0625 31.28125 -27.25 31.28125 -28.421875 C 31.125 -28.625 30.953125 -28.71875 30.71875 -28.671875 Z M 30.71875 -28.671875 "/></g></g></g><g fill="#000000" fill-opacity="1"><g transform="translate(349.521588, 103.635482)"><g><path d="M 11.921875 -29.125 C 10.171875 -29 8.578125 -28.46875 7.03125 -27.78125 C 6.296875 -27.453125 5.59375 -27.078125 5.03125 -26.5 C 3.515625 -25 2.65625 -23.203125 2.53125 -21.03125 C 2.40625 -18.75 3.0625 -16.625 4.78125 -15.15625 C 6.125 -13.96875 7.234375 -12.453125 9.03125 -11.765625 C 9.6875 -11.484375 10.25 -10.984375 10.859375 -10.625 C 11.921875 -10.046875 12.984375 -9.390625 14.015625 -8.734375 C 14.984375 -8.09375 15.96875 -7.390625 16.90625 -6.609375 C 17.640625 -5.96875 17.5625 -4.25 16.421875 -3.96875 C 14.703125 -3.46875 13.03125 -3.46875 11.390625 -4.046875 C 10.5 -4.125 9.4375 -4.8125 8.5 -5.3125 C 7.390625 -5.84375 6.25 -6.78125 5.46875 -7.765625 C 5.265625 -8 4.9375 -8.203125 4.734375 -8.375 C 4.125 -8.40625 3.875 -8.09375 3.640625 -7.796875 C 3.234375 -7.3125 2.859375 -6.828125 2.53125 -6.328125 C 2.28125 -6 1.546875 -5.140625 1.671875 -4.859375 C 1.953125 -4.203125 2.984375 -3.515625 3.515625 -3.0625 C 5.3125 -1.46875 7.390625 -0.484375 9.6875 0.078125 C 12.421875 0.734375 15.1875 0.734375 17.96875 0.375 C 20.375 0.078125 22.625 -0.65625 24.546875 -2.171875 C 25.234375 -2.703125 25.890625 -3.3125 26.21875 -4.078125 C 26.671875 -5.3125 27.03125 -6.53125 27.03125 -7.921875 C 26.953125 -10.296875 26.09375 -12.25 24.390625 -13.84375 C 23.28125 -14.953125 21.890625 -15.6875 20.671875 -16.671875 C 19.6875 -17.40625 18.625 -17.96875 17.609375 -18.671875 C 16.5 -19.40625 15.359375 -20.09375 14.25 -20.875 C 13.84375 -21.15625 13.484375 -21.5625 13.234375 -22.015625 C 12.625 -23.078125 12.984375 -24.0625 14.09375 -24.421875 C 14.453125 -24.546875 14.78125 -24.625 15.15625 -24.625 C 16.296875 -24.703125 17.359375 -24.59375 18.421875 -24.21875 C 19.765625 -23.765625 20.875 -23 21.4375 -21.640625 C 21.5625 -21.40625 21.640625 -21.109375 22.015625 -20.90625 C 23.359375 -20.953125 24.828125 -20.671875 26.265625 -20.90625 C 26.34375 -21.53125 26.265625 -21.9375 26.09375 -22.375 C 25.859375 -22.90625 25.484375 -23.359375 25.203125 -23.859375 C 23.890625 -25.984375 22.171875 -27.53125 19.765625 -28.3125 C 17.234375 -29.125 14.625 -29.328125 11.921875 -29.125 Z M 11.921875 -29.125 "/></g></g></g><g fill="#000000" fill-opacity="1"><g transform="translate(378.024726, 103.635482)"><g/></g></g><g fill="#000000" fill-opacity="1"><g transform="translate(389.050295, 103.635482)"><g><path d="M 19.734375 -29.078125 C 18.78125 -29.15625 17.84375 -29.125 16.90625 -29.046875 C 16.140625 -28.953125 15.3125 -28.875 14.546875 -28.671875 C 13.8125 -28.515625 12.859375 -28.21875 12.375 -28.0625 C 11.109375 -27.6875 10.53125 -27.328125 9.3125 -26.875 C 7.796875 -26.265625 6.609375 -25.15625 5.640625 -23.9375 C 4.9375 -23.125 4.328125 -22.171875 3.75 -21.234375 C 2.984375 -19.890625 2.484375 -18.5 2.078125 -17.03125 C 1.84375 -16.09375 1.71875 -12.296875 1.953125 -11.4375 C 2.28125 -10.328125 3.0625 -7.796875 3.671875 -6.828125 C 4.046875 -6.25 4.40625 -5.640625 4.90625 -5.1875 C 5.671875 -4.40625 6.125 -3.4375 7.109375 -2.859375 C 7.59375 -2.578125 8.09375 -2.25 8.53125 -1.875 C 9.265625 -1.3125 10.203125 -1.140625 11.0625 -0.734375 C 12.046875 -0.203125 13.1875 -0.15625 14.25 0.125 C 15.359375 0.375 16.5 0.375 17.609375 0.53125 C 18.25 0.609375 18.90625 0.578125 19.5625 0.578125 C 20.625 0.578125 21.03125 0.53125 22.171875 0.328125 C 23.203125 0.15625 24.265625 0.15625 25.28125 -0.203125 C 26.09375 -0.53125 26.921875 -0.8125 27.65625 -1.265625 C 28.953125 -2 30.21875 -2.8125 31.15625 -4.046875 C 31.984375 -5.0625 32.671875 -6.171875 33.25 -7.359375 C 33.703125 -8.328125 34.015625 -9.390625 34.3125 -10.453125 C 34.84375 -12.375 35.078125 -14.296875 34.84375 -16.171875 C 34.84375 -17.515625 34.4375 -18.625 34.109375 -19.765625 C 33.65625 -21.40625 32.75 -22.796875 31.609375 -24.015625 C 30.71875 -25 29.65625 -25.8125 28.546875 -26.546875 C 28.1875 -26.796875 27.8125 -27.203125 27.453125 -27.328125 C 26.46875 -27.65625 25.609375 -28.265625 24.546875 -28.390625 C 23.6875 -28.515625 22.828125 -28.921875 21.9375 -28.953125 Z M 18.140625 -24.875 C 18.75 -25.078125 20.296875 -24.828125 20.671875 -24.34375 C 21.28125 -23.53125 21.609375 -22.671875 21.9375 -21.609375 C 22.59375 -20.171875 22.296875 -18.828125 22.59375 -17.28125 C 22.671875 -16.703125 22.671875 -16.09375 22.671875 -15.515625 C 22.671875 -13.890625 22.703125 -12.296875 22.546875 -10.65625 C 22.375 -9.03125 22.0625 -7.4375 21.609375 -5.875 C 21.328125 -4.984375 20.75 -4.28125 19.96875 -3.796875 C 19.4375 -3.4375 18.78125 -3.46875 18.140625 -3.71875 C 16.984375 -4.078125 16.34375 -4.9375 15.765625 -5.921875 C 14.90625 -7.390625 14.625 -9.03125 14.296875 -10.65625 C 14.171875 -11.1875 14.171875 -11.796875 14.125 -12.375 C 14.046875 -13.28125 13.890625 -14.34375 14.015625 -15.234375 C 14.21875 -17.109375 14.34375 -18.78125 14.90625 -20.578125 C 15.234375 -21.53125 15.484375 -22.46875 16.015625 -23.28125 C 16.421875 -23.96875 17.3125 -24.625 18.140625 -24.875 Z M 18.140625 -24.875 "/></g></g></g><g fill="#000000" fill-opacity="1"><g transform="translate(425.802192, 103.635482)"><g><path d="M 26.75 -28.625 C 25.734375 -28.515625 24.75 -28.625 23.765625 -28.515625 C 22.796875 -28.390625 21.8125 -28.515625 20.828125 -28.546875 C 20.140625 -28.546875 19.40625 -28.59375 18.703125 -28.515625 C 18.046875 -28.421875 13.515625 -28.515625 12.53125 -28.390625 C 11.765625 -28.3125 10.953125 -28.421875 10.171875 -28.46875 C 9.890625 -28.515625 9.59375 -28.421875 9.359375 -28.421875 C 8.25 -28.390625 7.140625 -28.546875 6.046875 -28.46875 C 5.4375 -28.421875 4.78125 -28.546875 4.125 -28.546875 C 3.59375 -28.546875 3.015625 -28.59375 2.53125 -28.21875 C 2.484375 -27.859375 2.40625 -27.484375 2.453125 -27.125 C 2.65625 -25.203125 2.40625 -23.234375 2.453125 -21.28125 C 2.484375 -20.421875 2.484375 -19.609375 2.484375 -18.75 C 2.484375 -17.640625 2.53125 -16.546875 2.578125 -15.4375 C 2.578125 -14.828125 2.484375 -14.125 2.53125 -13.515625 C 2.609375 -12.828125 2.65625 -12.171875 2.609375 -11.484375 C 2.609375 -10.453125 2.609375 -9.4375 2.703125 -8.40625 C 2.78125 -7.109375 2.53125 -5.765625 2.65625 -4.40625 C 2.703125 -3.515625 2.578125 -2.578125 2.578125 -1.640625 C 2.578125 -1.3125 2.578125 -0.578125 2.53125 -0.25 C 2.453125 0.25 3.671875 -0.046875 5.3125 -0.046875 C 6.078125 -0.078125 6.828125 -0.078125 7.5625 -0.046875 C 8.703125 0 9.84375 0.125 10.984375 0 C 11.59375 -0.046875 12.171875 0.046875 12.75 0 C 13.3125 -0.046875 13.5625 -0.15625 13.5625 -0.78125 C 13.59375 -1.21875 13.59375 -1.71875 13.640625 -2.171875 C 13.765625 -4.203125 13.59375 -6.203125 13.59375 -8.25 C 13.59375 -9.265625 13.5625 -10.296875 13.59375 -11.265625 C 14.296875 -11.515625 14.953125 -11.4375 15.609375 -11.390625 C 16.625 -11.359375 17.6875 -11.484375 18.703125 -11.359375 C 19.5625 -11.265625 20.421875 -11.390625 21.234375 -11.4375 L 24.59375 -11.4375 C 24.828125 -11.4375 25.5625 -11.484375 25.5625 -11.6875 L 25.609375 -12.625 C 25.453125 -14.09375 25.8125 -14.828125 25.453125 -15.96875 C 21.5625 -15.6875 17.609375 -15.6875 13.8125 -15.6875 C 13.59375 -18.625 13.890625 -21.484375 13.59375 -24.390625 C 13.96875 -24.390625 14.21875 -24.421875 14.453125 -24.421875 C 16.375 -24.46875 18.296875 -24.421875 20.21875 -24.5 C 21.8125 -24.546875 23.4375 -24.546875 25.078125 -24.625 C 25.609375 -24.625 26.1875 -24.671875 26.75 -24.5 C 26.921875 -24.46875 27.078125 -24.546875 27.203125 -24.703125 C 27.328125 -25.8125 27.078125 -26.875 27.359375 -27.984375 C 27.28125 -28.3125 27.03125 -28.515625 26.75 -28.625 Z M 26.75 -28.625 "/></g></g></g><g fill="#000000" fill-opacity="1"><g transform="translate(454.387001, 103.635482)"><g/></g></g><g fill="#000000" fill-opacity="1"><g transform="translate(465.41257, 103.635482)"><g><path d="M 37.984375 -28.671875 C 37.859375 -28.671875 37.609375 -28.671875 37.453125 -28.625 C 36.0625 -28.625 34.671875 -28.59375 33.28125 -28.515625 C 32.640625 -28.46875 31.9375 -28.421875 31.28125 -28.421875 C 30.140625 -28.421875 29.046875 -28.515625 27.890625 -28.515625 C 27.453125 -28.546875 27.28125 -28.390625 27.125 -28.0625 C 26.796875 -27.359375 26.5 -26.625 26.140625 -25.9375 C 25.359375 -24.46875 24.59375 -23 23.8125 -21.5625 C 23.359375 -20.671875 22.796875 -19.765625 22.34375 -18.875 C 21.9375 -17.96875 21.40625 -17.15625 21.109375 -16.21875 C 21 -15.84375 20.75 -15.515625 20.546875 -15.15625 C 19.4375 -16.546875 18.578125 -18.046875 17.71875 -19.640625 C 16.953125 -21 16.015625 -22.21875 15.3125 -23.609375 C 14.5 -25.234375 13.484375 -26.796875 12.828125 -28.515625 C 12.75 -28.671875 12.578125 -28.671875 12.328125 -28.671875 C 12.046875 -28.671875 11.71875 -28.625 11.4375 -28.625 C 10 -28.59375 8.53125 -28.625 7.109375 -28.625 C 5.59375 -28.59375 4.203125 -28.515625 2.65625 -28.625 C 2.53125 -28.3125 2.40625 -28.015625 2.484375 -27.65625 C 2.53125 -27.25 2.453125 -26.796875 2.484375 -26.296875 C 2.53125 -25.5625 2.578125 -24.828125 2.578125 -24.0625 C 2.53125 -23 2.703125 -21.96875 2.609375 -20.90625 C 2.53125 -19.890625 2.65625 -18.875 2.65625 -17.8125 L 2.65625 -13.890625 C 2.65625 -12.65625 2.65625 -11.484375 2.703125 -10.296875 L 2.65625 -5.59375 C 2.703125 -4.703125 2.65625 -3.796875 2.609375 -2.9375 C 2.578125 -2.125 2.65625 -1.265625 2.578125 -0.484375 C 2.578125 -0.25 2.734375 -0.046875 3.015625 -0.125 C 4 -0.328125 5.5625 -0.15625 6.53125 -0.203125 C 6.984375 -0.25 6.78125 -1.109375 6.78125 -1.265625 C 6.734375 -2.25 6.828125 -3.140625 6.78125 -4.078125 C 6.703125 -5.71875 6.703125 -7.390625 6.734375 -9.0625 C 6.78125 -10.09375 6.78125 -11.1875 6.734375 -12.25 C 6.734375 -13.0625 6.703125 -13.890625 6.65625 -14.703125 C 6.65625 -15.078125 6.78125 -15.484375 6.703125 -15.8125 C 6.578125 -16.546875 6.65625 -17.234375 6.578125 -18.046875 C 6.984375 -17.515625 7.1875 -17.078125 7.46875 -16.625 C 7.890625 -15.96875 8.328125 -15.28125 8.78125 -14.65625 C 9.4375 -13.8125 9.921875 -12.90625 10.453125 -12.015625 C 11.265625 -10.703125 12.09375 -9.3125 12.953125 -8 C 13.390625 -7.265625 13.890625 -6.578125 14.34375 -5.84375 C 14.453125 -5.671875 14.578125 -5.5625 14.75 -5.5625 C 15.109375 -5.5625 15.484375 -5.5625 15.84375 -5.59375 C 17.359375 -5.671875 18.90625 -5.921875 20.375 -5.59375 C 20.828125 -5.515625 21.078125 -5.671875 21.234375 -6.078125 C 21.6875 -7.234375 22.171875 -8.328125 22.75 -9.390625 C 23.9375 -11.71875 25.078125 -14.015625 26.296875 -16.296875 C 26.59375 -16.78125 26.921875 -17.234375 27.28125 -17.71875 C 27.484375 -15.765625 27.203125 -13.890625 27.25 -11.96875 C 27.28125 -10.734375 27.328125 -9.4375 27.25 -8.171875 C 27.125 -6.53125 27.125 -4.9375 27.125 -3.3125 C 27.078125 -2.28125 27 -0.578125 27.15625 -0.15625 C 27.453125 -0.078125 27.53125 0.046875 27.78125 0 C 28.71875 -0.15625 29.65625 -0.046875 30.59375 0 C 32.640625 0.078125 34.671875 -0.25 36.671875 -0.203125 L 38.140625 -0.203125 C 38.4375 -0.453125 38.46875 -0.734375 38.4375 -1.0625 C 38.4375 -1.671875 38.390625 -2.375 38.390625 -2.984375 C 38.390625 -3.59375 38.4375 -4.25 38.359375 -4.859375 C 38.265625 -5.71875 38.3125 -6.53125 38.265625 -7.390625 C 38.234375 -8.296875 38.234375 -9.15625 38.265625 -10.046875 C 38.265625 -10.734375 38.140625 -11.390625 38.1875 -12.046875 C 38.265625 -13.59375 38.3125 -15.15625 38.3125 -16.75 C 38.3125 -17.609375 38.234375 -18.546875 38.3125 -19.40625 C 38.359375 -20.21875 38.265625 -21 38.265625 -21.8125 C 38.3125 -22.828125 38.1875 -23.859375 38.109375 -24.875 L 38.109375 -27.984375 C 38.109375 -28.265625 38.3125 -28.46875 37.984375 -28.671875 Z M 37.984375 -28.671875 "/></g></g></g><g fill="#000000" fill-opacity="1"><g transform="translate(506.370517, 103.635482)"><g><path d="M 26.265625 -28.59375 L 25.9375 -28.59375 C 24.625 -28.59375 23.328125 -28.671875 22.0625 -28.546875 C 20.75 -28.421875 19.4375 -28.59375 18.171875 -28.515625 C 16.875 -28.390625 15.515625 -28.546875 14.21875 -28.46875 C 13.3125 -28.421875 12.375 -28.46875 11.484375 -28.421875 C 8.90625 -28.3125 6.328125 -28.515625 3.75 -28.390625 C 3.390625 -28.390625 3.1875 -28.46875 2.8125 -28.34375 C 2.734375 -28.21875 2.53125 -28.1875 2.453125 -28.09375 C 2.484375 -27.5625 2.65625 -24.546875 2.578125 -20.703125 C 2.484375 -19.5625 2.484375 -18.421875 2.453125 -17.28125 C 2.453125 -16.140625 2.484375 -14.953125 2.484375 -13.8125 C 2.484375 -12.703125 2.578125 -11.640625 2.65625 -10.53125 C 2.734375 -9.84375 2.703125 -9.15625 2.703125 -8.453125 C 2.703125 -7.59375 2.734375 -6.703125 2.65625 -5.875 C 2.578125 -5.03125 2.578125 -4.25 2.65625 -3.4375 C 2.734375 -2.28125 2.78125 -1.109375 2.703125 0.046875 C 2.703125 0.203125 3.796875 0.046875 4.171875 0.046875 C 5.234375 0.046875 6.25 0.125 7.265625 0.203125 C 8.171875 0.25 11.5625 0.046875 12.046875 0.046875 C 14.34375 0.046875 16.625 0.078125 18.875 0 C 20.625 -0.046875 22.375 -0.15625 24.140625 -0.046875 C 25.53125 0.046875 26.875 -0.203125 28.265625 -0.15625 C 28.828125 -0.125 29.125 -0.453125 29.078125 -1.015625 L 29.078125 -4.078125 C 28.21875 -4.53125 27.40625 -4.125 26.59375 -4.125 C 25.234375 -4.125 23.859375 -4.171875 22.5 -4 C 21.84375 -3.96875 21.15625 -4.078125 20.546875 -3.96875 C 19.484375 -3.796875 18.46875 -3.84375 17.40625 -3.75 C 16.578125 -3.71875 15.6875 -3.75 14.828125 -3.796875 C 14.453125 -3.84375 14.046875 -3.671875 13.71875 -3.921875 C 13.59375 -6.734375 13.359375 -9.5625 13.5625 -12.421875 L 16.578125 -12.421875 C 17.15625 -12.421875 17.71875 -12.421875 18.296875 -12.453125 C 19.765625 -12.5 21.203125 -12.578125 22.671875 -12.578125 C 23.4375 -12.578125 24.21875 -12.625 25 -12.625 C 25.40625 -12.625 25.65625 -12.953125 25.65625 -13.359375 C 25.609375 -14.25 25.5625 -15.15625 25.609375 -16.09375 C 25.65625 -16.671875 25.328125 -16.984375 24.75 -17.03125 C 24.0625 -17.078125 23.359375 -17.03125 22.671875 -16.984375 C 21.234375 -16.953125 19.8125 -16.828125 18.375 -16.828125 C 17.71875 -16.875 17.078125 -16.90625 16.421875 -16.78125 C 15.484375 -16.671875 14.578125 -16.953125 13.640625 -16.828125 C 13.359375 -19.3125 13.640625 -22.015625 13.5625 -24.46875 C 18.171875 -24.875 22.828125 -24.59375 27.453125 -24.671875 C 27.484375 -24.875 27.5625 -25.078125 27.53125 -25.28125 C 27.453125 -26.015625 27.359375 -26.75 27.484375 -27.53125 C 27.5625 -28.3125 27.078125 -28.671875 26.265625 -28.59375 Z M 26.265625 -28.59375 "/></g></g></g></svg>